<?xml version="1.0" standalone="no"?>
<!DOCTYPE svg PUBLIC "-//W3C//DTD SVG 20010904//EN"
 "http://www.w3.org/TR/2001/REC-SVG-20010904/DTD/svg10.dtd">
<svg version="1.0" xmlns="http://www.w3.org/2000/svg"
 width="512.000000pt" height="512.000000pt" viewBox="0 0 512.000000 512.000000"
 preserveAspectRatio="xMidYMid meet">
<metadata>
Created by potrace 1.16, written by Peter Selinger 2001-2019
</metadata>
<g transform="translate(0.000000,512.000000) scale(0.100000,-0.100000)"
fill="#000000" stroke="none">
<path d="M988 4894 c-356 -64 -655 -344 -749 -701 -30 -113 -36 -302 -15 -417
32 -167 99 -315 201 -439 l46 -57 -31 -86 c-35 -100 -72 -242 -95 -369 -23
-120 -32 -487 -16 -626 112 -971 838 -1758 1796 -1948 231 -45 549 -52 779
-16 731 113 1365 585 1682 1250 146 308 214 614 214 970 0 274 -38 505 -120
739 l-31 86 46 57 c151 185 223 406 212 653 -6 145 -30 246 -86 366 -100 213
-253 365 -467 466 -120 56 -217 79 -364 85 -267 12 -506 -74 -696 -250 -62
-57 -72 -63 -94 -55 -51 19 -229 57 -340 73 -153 21 -447 21 -600 0 -112 -16
-289 -54 -340 -73 -22 -8 -32 -3 -90 51 -221 206 -536 297 -842 241z m362
-449 c102 -36 200 -114 271 -215 80 -114 163 -136 314 -81 94 34 240 72 355
93 48 8 151 13 285 12 188 0 223 -3 336 -27 70 -15 180 -45 244 -68 190 -67
252 -52 354 83 119 156 256 229 435 229 152 0 270 -49 374 -153 103 -102 152
-221 152 -368 0 -160 -50 -271 -181 -400 -103 -102 -119 -129 -119 -210 0 -49
8 -79 44 -163 146 -341 187 -677 126 -1030 -127 -737 -699 -1322 -1434 -1467
-209 -42 -484 -42 -690 -1 -551 110 -1022 468 -1271 966 -109 218 -164 420
-187 677 -24 285 33 606 159 878 71 155 60 204 -75 339 -102 101 -146 169
-176 270 -18 62 -21 193 -5 261 36 158 168 306 330 371 98 38 257 41 359 4z"/>
<path d="M1721 3085 c-104 -29 -186 -108 -216 -207 -78 -263 150 -491 413
-413 266 79 298 472 49 595 -77 38 -167 47 -246 25z"/>
<path d="M3219 3086 c-62 -17 -133 -60 -163 -99 -142 -186 -66 -459 146 -522
210 -62 412 71 426 281 11 168 -79 298 -234 339 -69 18 -112 18 -175 1z"/>
<path d="M2132 2117 c-22 -24 -28 -53 -14 -73 4 -6 71 -57 149 -113 81 -58
150 -115 162 -134 11 -18 33 -84 48 -146 22 -91 33 -117 52 -129 20 -14 26
-14 49 -1 21 12 30 32 53 121 28 107 56 165 100 204 13 12 74 54 134 94 140
91 145 96 145 136 0 64 2 64 -450 64 l-407 0 -21 -23z"/>
</g>
</svg>
