<?xml version="1.0" standalone="no"?>
<!DOCTYPE svg PUBLIC "-//W3C//DTD SVG 20010904//EN"
 "http://www.w3.org/TR/2001/REC-SVG-20010904/DTD/svg10.dtd">
<svg version="1.0" xmlns="http://www.w3.org/2000/svg"
 width="860.000000pt" height="974.000000pt" viewBox="0 0 860.000000 974.000000"
 preserveAspectRatio="xMidYMid meet">
<metadata>
Created by potrace 1.16, written by Peter Selinger 2001-2019
</metadata>
<g transform="translate(0.000000,974.000000) scale(0.100000,-0.100000)"
fill="#000000" stroke="none">
<path d="M2275 9324 c-254 -28 -495 -144 -680 -329 -145 -144 -237 -304 -292
-501 -25 -91 -27 -114 -28 -279 0 -192 10 -258 59 -388 68 -181 134 -276 334
-479 l155 -158 -21 -72 c-29 -102 -59 -249 -79 -381 -23 -159 -23 -562 1 -707
35 -220 94 -406 182 -582 30 -59 54 -111 54 -116 0 -4 -44 -25 -97 -46 -719
-286 -1203 -670 -1422 -1130 -47 -97 -71 -168 -103 -296 -29 -116 -31 -357 -4
-475 84 -369 339 -661 675 -774 33 -12 67 -21 75 -21 27 0 25 -15 -9 -123
-119 -365 -79 -774 107 -1102 72 -128 143 -218 256 -326 235 -226 503 -346
844 -380 109 -11 144 -11 260 4 328 40 602 172 829 398 l76 76 44 -14 c107
-33 295 -75 424 -95 169 -26 560 -31 710 -10 181 27 339 61 485 105 l45 13 96
-91 c241 -228 518 -353 853 -386 200 -20 428 14 627 95 420 170 732 535 836
976 36 156 42 374 15 535 -12 66 -36 164 -55 217 l-33 97 85 26 c324 101 576
364 674 706 39 133 52 278 38 405 -64 569 -467 1047 -1187 1407 -135 68 -394
182 -438 193 -14 3 -26 8 -26 11 0 3 15 32 34 66 170 304 257 741 227 1140
-17 227 -35 345 -88 555 l-26 103 155 157 c211 215 294 343 352 544 165 572
-134 1161 -692 1367 -128 48 -231 65 -387 65 -196 0 -317 -27 -494 -110 -132
-62 -209 -121 -392 -301 l-106 -105 -129 41 c-150 47 -222 65 -331 86 -440 84
-859 50 -1307 -105 -33 -11 -63 -20 -68 -20 -5 0 -71 61 -148 136 -76 74 -166
155 -201 179 -117 83 -271 149 -421 180 -73 16 -272 26 -343 19z m257 -348
c171 -33 288 -96 427 -232 l95 -91 -35 -18 c-177 -90 -412 -267 -595 -449
-171 -171 -275 -305 -390 -502 -42 -74 -80 -134 -84 -134 -16 0 -197 200 -229
253 -44 75 -79 164 -96 245 -19 86 -19 238 -1 323 49 230 207 430 421 534 163
79 322 102 487 71z m3891 -15 c274 -80 481 -288 553 -556 51 -193 18 -418 -90
-598 -42 -71 -208 -257 -229 -257 -7 0 -30 34 -51 77 -48 93 -168 274 -244
368 -191 234 -449 453 -714 607 -49 28 -88 54 -88 57 0 11 116 120 179 170 91
71 224 129 348 151 76 14 259 4 336 -19z m-1904 -331 c588 -62 1184 -376 1546
-815 303 -368 459 -772 495 -1287 37 -521 -108 -973 -411 -1278 -96 -97 -262
-230 -288 -230 -3 0 -4 69 -3 152 6 242 -30 402 -139 619 -134 270 -371 534
-620 691 -362 230 -765 296 -1164 193 -273 -72 -582 -267 -787 -500 -282 -320
-422 -677 -403 -1032 3 -68 3 -123 -1 -123 -21 0 -183 129 -269 215 -203 202
-324 426 -388 716 -82 370 -53 808 80 1199 176 520 555 950 1073 1219 291 150
547 227 885 265 69 7 307 5 394 -4z m-22 -2265 c475 -90 910 -512 1009 -978
17 -80 19 -293 3 -387 -5 -36 -22 -91 -36 -122 l-26 -58 -92 -29 c-354 -114
-828 -168 -1258 -143 -201 12 -265 18 -417 43 -130 21 -304 61 -411 95 -105
34 -110 36 -130 75 -34 68 -51 172 -52 324 0 157 13 234 63 361 65 164 163
308 309 455 189 188 420 318 651 364 91 18 291 18 387 0z m-2256 -1381 c49
-54 207 -180 308 -246 336 -219 749 -353 1278 -415 211 -24 737 -24 953 1 669
76 1179 282 1550 625 36 33 67 60 70 61 18 1 168 -322 214 -461 121 -361 156
-788 95 -1147 -10 -59 -13 -63 -33 -57 -326 104 -626 105 -914 3 -427 -150
-757 -499 -880 -928 -85 -295 -65 -630 52 -907 14 -34 26 -67 26 -72 0 -5 -42
-19 -92 -31 -376 -88 -769 -88 -1138 2 -47 11 -86 21 -87 22 -1 1 15 44 36 97
218 540 69 1159 -372 1547 -333 294 -782 409 -1216 312 -47 -10 -106 -26 -130
-35 -25 -8 -48 -12 -51 -8 -14 16 -32 184 -37 354 -10 301 29 566 123 850 45
136 195 459 212 459 5 0 19 -12 33 -26z m-546 -260 c-169 -466 -210 -971 -119
-1465 9 -50 15 -91 13 -93 -58 -40 -155 -125 -211 -185 l-73 -78 -70 8 c-235
26 -435 186 -530 424 -87 219 -68 449 60 705 140 280 446 553 851 760 65 33
119 58 121 56 3 -2 -17 -62 -42 -132z m5313 66 c138 -72 311 -181 417 -264
153 -119 321 -308 399 -449 100 -179 148 -389 126 -550 -46 -334 -278 -584
-575 -616 l-70 -8 -90 92 c-49 50 -115 110 -146 133 l-57 43 10 42 c26 116 49
310 54 467 14 387 -52 771 -195 1128 -11 28 -18 52 -14 52 3 0 67 -31 141 -70z
m-4357 -1739 c186 -51 328 -132 467 -265 323 -310 411 -788 218 -1191 -220
-458 -723 -693 -1211 -564 -184 48 -333 134 -470 273 -193 194 -292 420 -302
689 -3 79 -1 159 7 205 69 435 397 777 830 867 101 21 364 13 461 -14z m3779
10 c466 -104 800 -492 827 -961 40 -702 -614 -1243 -1297 -1073 -372 92 -668
391 -762 770 -31 125 -32 360 -1 483 85 340 343 630 659 741 176 61 405 77
574 40z"/>
<path d="M2280 2724 c-260 -50 -467 -232 -548 -481 -12 -34 -24 -94 -28 -133
l-7 -70 169 0 169 0 17 72 c55 229 286 339 495 237 101 -49 177 -153 190 -260
l6 -49 168 0 169 0 0 48 c0 101 -57 261 -125 352 -87 118 -219 214 -349 256
-62 20 -106 27 -191 29 -60 2 -121 1 -135 -1z"/>
<path d="M6090 2720 c-286 -54 -505 -277 -556 -565 -22 -127 -39 -115 155
-115 180 0 181 0 181 50 0 11 9 44 21 75 27 73 104 156 177 192 49 24 69 27
147 27 78 0 98 -4 148 -28 105 -52 197 -182 197 -281 l0 -35 175 0 c201 0 183
-13 161 115 -46 260 -220 459 -476 545 -73 24 -252 35 -330 20z"/>
</g>
</svg>
