<svg id="svg" version="1.1" xmlns="http://www.w3.org/2000/svg" viewBox="0 0 860 974" style="display: block;"><path d="M0 0 C283.8 0 567.6 0 860 0 C860 321.42 860 642.84 860 974 C576.2 974 292.4 974 0 974 C0 652.58 0 331.16 0 0 Z " transform="translate(0,0)" style="fill: #7248FD;"/><path d="M0 0 C283.8 0 567.6 0 860 0 C860 321.42 860 642.84 860 974 C576.2 974 292.4 974 0 974 C0 652.58 0 331.16 0 0 Z M203 46 C202.31421875 46.22993652 201.6284375 46.45987305 200.921875 46.69677734 C187.34105019 51.3454463 175.94129448 58.83088702 165 68 C164.0821875 68.69609375 163.164375 69.3921875 162.21875 70.109375 C161.4865625 70.73328125 160.754375 71.3571875 160 72 C160 72.66 160 73.32 160 74 C159.34 74 158.68 74 158 74 C141.69859672 88.94671603 130.09360501 113.34476496 127 135 C126.88914062 135.77601563 126.77828125 136.55203125 126.6640625 137.3515625 C126.33372868 140.23528744 126.15293288 143.1010723 126 146 C125.93304932 147.01634521 125.93304932 147.01634521 125.86474609 148.05322266 C124.30235825 174.20475446 132.80102529 200.43480787 149 221 C149.62068359 221.80236084 150.24136719 222.60472168 150.88085938 223.43139648 C154.88086986 228.47939177 159.05102185 233.17623657 163.7265625 237.60546875 C164.20974442 238.06592087 164.69292633 238.52637299 165.19075012 239.0007782 C167.17122203 240.88191699 169.15502738 242.75754559 171.17041016 244.60131836 C172.66833756 245.97810737 174.13589377 247.38199197 175.6015625 248.79296875 C176.47119629 249.6027417 177.34083008 250.41251465 178.23681641 251.24682617 C180.2959522 254.46212308 180.18491572 256.23982905 179.47567749 259.93919373 C179.31870392 260.6192598 179.16173035 261.29932587 179 262 C178.75572266 263.22195068 178.51144531 264.44390137 178.25976562 265.70288086 C177.97810547 266.94432861 177.69644531 268.18577637 177.40625 269.46484375 C177.095014 270.85611127 176.78381729 272.24738758 176.47265625 273.63867188 C175.9869666 275.78898808 175.49967487 277.93893095 175.01123047 280.08862305 C172.41634866 291.44722028 172.41634866 291.44722028 171 303 C170.89558594 304.30453125 170.79117188 305.6090625 170.68359375 306.953125 C168.7514363 338.11054393 167.93838455 370.05471594 178 400 C178.42539062 401.41925781 178.42539062 401.41925781 178.859375 402.8671875 C183.0551171 416.44814219 189.47879908 429.40222549 196 442 C195.32710937 442.11085938 194.65421875 442.22171875 193.9609375 442.3359375 C190.39399445 443.13591154 187.0364795 444.33466268 183.625 445.625 C182.92238037 445.89006348 182.21976074 446.15512695 181.49584961 446.42822266 C174.80395709 448.99943262 168.35290792 451.98532955 161.90087891 455.10107422 C160.02420765 455.9885522 158.13296929 456.82968022 156.23046875 457.66015625 C130.25212879 469.1503268 106.27930409 485.2742124 85 504 C83.73736328 505.07894531 83.73736328 505.07894531 82.44921875 506.1796875 C78.19141649 509.85785617 74.34756532 513.66548167 70.7265625 517.97265625 C69.59201578 519.30485025 68.42022614 520.60635737 67.2109375 521.87109375 C48.90805312 541.19080504 37.79048265 566.34021413 32 592 C31.823479 592.76997314 31.64695801 593.53994629 31.46508789 594.33325195 C28.64516273 610.50230318 30.25583996 628.36547921 35 644 C35.35518063 645.29790003 35.70935664 646.59607542 36.0625 647.89453125 C40.14490901 661.65848664 47.65756026 673.20911999 57 684 C57.68578125 684.83015625 58.3715625 685.6603125 59.078125 686.515625 C71.40240038 700.96783282 89.36749806 711.90084957 108 716 C108.99 716 109.98 716 111 716 C110.68546875 716.66902344 110.3709375 717.33804688 110.046875 718.02734375 C106.1273748 726.82260774 103.92266187 735.61519427 102 745 C101.77183594 746.03382813 101.54367188 747.06765625 101.30859375 748.1328125 C98.1456071 764.72190332 98.97874234 782.64178607 103 799 C103.19335938 799.81001465 103.38671875 800.6200293 103.5859375 801.45458984 C109.2647399 824.68246911 119.45076647 843.85922755 135 862 C135.70898438 862.84433594 136.41796875 863.68867187 137.1484375 864.55859375 C155.23649128 885.48719027 180.5854548 898.93372477 207.125 905.75 C207.93598145 905.96092285 208.74696289 906.1718457 209.58251953 906.38916016 C237.28234717 913.1872455 270.52172554 909.7569045 296 897 C297.09957031 896.48566406 298.19914062 895.97132813 299.33203125 895.44140625 C315.30783597 887.81458878 329.95845973 877.42502655 341.22265625 863.67578125 C344.45152308 861.72756202 345.13323465 861.89109701 348.70703125 862.578125 C350.47733028 863.02924936 352.24187893 863.50353031 354 864 C355.59582529 864.39666509 357.19216928 864.79125005 358.7890625 865.18359375 C360.401246 865.60077363 362.01322048 866.01876203 363.625 866.4375 C372.36000969 868.65729869 381.09249295 870.60472436 390 872 C390.99233643 872.16918945 391.98467285 872.33837891 393.00708008 872.51269531 C404.68200793 874.31715641 416.27139253 874.39365135 428.0625 874.375 C429.64149078 874.37617828 429.64149078 874.37617828 431.25238037 874.37738037 C460.57983324 874.44591113 460.57983324 874.44591113 489 868 C491.24371994 867.49223873 493.49431488 867.01414736 495.75 866.5625 C500.91217649 865.49953863 505.84867027 864.20948226 510.81640625 862.453125 C513.73185231 861.84813083 515.18076057 861.94961273 518 863 C520.3247856 864.93880538 522.32566012 867.15195279 524.375 869.375 C547.68811981 893.4927618 581.07660276 908.30557142 614.68359375 909.1875 C632.68223522 909.46201698 648.80868386 907.30601435 666 902 C666.98613281 901.70351563 667.97226562 901.40703125 668.98828125 901.1015625 C687.47567535 894.98585398 704.06056688 883.36151301 718 870 C718.80824219 869.25492188 719.61648438 868.50984375 720.44921875 867.7421875 C739.23858508 849.86721733 752.41823885 825.23002026 758 800 C758.26167969 798.82824219 758.52335938 797.65648437 758.79296875 796.44921875 C762.99341084 772.00772012 760.36817526 746.50656722 753 723 C752.32145587 720.66988297 751.66014064 718.33543088 751 716 C752.0725 715.773125 753.145 715.54625 754.25 715.3125 C779.6755383 708.87791737 801.5915179 691.30612077 815 669 C830.10978577 641.9146969 834.48308109 610.60753675 826.33203125 580.53564453 C821.42299225 563.90919697 813.68763372 547.70272305 803 534 C802.37609375 533.18660156 801.7521875 532.37320312 801.109375 531.53515625 C790.49371418 517.97302265 778.65774196 505.51692376 765 495 C764.33355469 494.48421387 763.66710937 493.96842773 762.98046875 493.43701172 C735.75323654 472.50275214 704.85727777 455.78392898 672.4699707 444.29394531 C670.61427789 443.61159624 668.80131965 442.8151341 667 442 C665.74134087 438.22402262 666.43312178 437.50877463 668.16796875 434.02734375 C668.89016602 432.55297852 668.89016602 432.55297852 669.62695312 431.04882812 C670.14193359 430.02208984 670.65691406 428.99535156 671.1875 427.9375 C676.93888441 416.33750361 681.42811057 405.25580204 684.625 392.6875 C684.9240625 391.55376953 685.223125 390.42003906 685.53125 389.25195312 C695.77515428 349.47750178 693.8529404 301.73054389 681.48706055 262.52954102 C679.62435738 256.49789647 679.62435738 256.49789647 681 253 C682.77832031 250.88110352 682.77832031 250.88110352 685.078125 248.62890625 C686.32529297 247.39624023 686.32529297 247.39624023 687.59765625 246.13867188 C688.91056641 244.8634668 688.91056641 244.8634668 690.25 243.5625 C691.10980469 242.71623047 691.96960938 241.86996094 692.85546875 240.99804688 C694.5124119 239.36791097 696.17205188 237.7405105 697.8347168 236.11621094 C718.76010517 215.66505902 733.62257921 190.87539495 734.16796875 160.83203125 C734.17985944 158.49220866 734.18621648 156.15235246 734.1875 153.8125 C734.19974609 152.65685547 734.21199219 151.50121094 734.22460938 150.31054688 C734.27363308 121.20680552 722.54257326 94.40113888 702.25 73.75 C681.26843603 53.13273882 653.18696388 40.79503715 623.625 40.6875 C590.96839274 41.04284937 563.32573208 51.71066698 540 75 C538.53102263 76.52597946 537.06640351 78.05616273 535.60546875 79.58984375 C534.4755249 80.76184326 534.4755249 80.76184326 533.32275391 81.95751953 C531.83591806 83.50666822 530.36492256 85.07120454 528.91162109 86.65185547 C523.81989209 91.95318013 523.81989209 91.95318013 520.05859375 92.16796875 C518.54458984 91.58982422 518.54458984 91.58982422 517 91 C515.56343172 90.53616684 514.12584367 90.07548556 512.6875 89.6171875 C511.12467451 89.07906937 509.56217516 88.54000314 508 88 C497.13415448 84.40226238 486.22311245 81.45331722 475 79.1875 C473.98679687 78.9807666 472.97359375 78.7740332 471.9296875 78.56103516 C443.02426385 72.95259052 409.6874109 73.63425054 381 80 C380.12134277 80.18723633 379.24268555 80.37447266 378.33740234 80.56738281 C367.55374397 82.90629954 357.14339195 86.09809149 346.79956055 89.94067383 C345.96851807 90.2373999 345.13747559 90.53412598 344.28125 90.83984375 C343.54970703 91.11175537 342.81816406 91.38366699 342.06445312 91.66381836 C339.29718894 92.11444783 338.31791922 91.55334638 336 90 C334.46604839 88.5830906 332.98522478 87.10780106 331.54296875 85.59765625 C330.68493652 84.71215088 329.8269043 83.82664551 328.94287109 82.91430664 C328.03359863 81.97321045 327.12432617 81.03211426 326.1875 80.0625 C311.57188156 65.14064174 296.49676659 54.71574167 277 47 C276.34902344 46.71253906 275.69804687 46.42507812 275.02734375 46.12890625 C253.29941831 36.91244557 224.87738377 38.41203379 203 46 Z " transform="translate(0,0)" style="fill: #F6F6F7;"/><path d="M0 0 C3.22035492 1.4827564 5.27693182 3.17338888 7.70043945 5.78100586 C31.03933383 30.87181725 65.68218921 46.2966555 98 56 C98.73524902 56.22526367 99.47049805 56.45052734 100.22802734 56.68261719 C110.22965407 59.72234853 120.16159657 61.88303263 130.5 63.421875 C134 64 134 64 136 65 C143.56869117 66.34028906 151.23999549 67.18390818 158.875 68.0625 C159.87853516 68.18129517 159.87853516 68.18129517 160.90234375 68.30249023 C176.5689587 70.0466823 192.19027265 70.15765732 207.93652344 70.13037109 C211.62439057 70.12500089 215.3121365 70.13035023 219 70.13671875 C230.37729831 70.14012635 241.66834194 70.11341839 253 69 C254.38148949 68.89165989 255.76299712 68.78355065 257.14453125 68.67578125 C289.0482891 65.51598415 324.81663872 59.621839 353.31640625 44.38671875 C355.43362526 43.29266817 357.53858296 42.29641775 359.71484375 41.33203125 C380.19019327 32.20178565 398.26475753 19.61468403 414.5390625 4.25 C417 2 417 2 420 0 C430.02330479 14.05196427 436.48012427 30.72692374 442 47 C442.25910156 47.76248047 442.51820313 48.52496094 442.78515625 49.31054688 C446.52498223 60.52099141 448.97092451 71.50766027 450.45703125 83.23046875 C450.58477565 86.78446607 450.58477565 86.78446607 452 88 C455.69772481 109.60905408 454.37051199 132.24312216 453 154 C463.89 154 474.78 154 486 154 C486.85601086 142.39426562 486.85601086 142.39426562 487.16796875 130.8046875 C487.1721582 130.01244781 487.17634766 129.22020813 487.18066406 128.40396118 C487.19026883 125.8942543 487.1904826 123.38472186 487.1875 120.875 C487.18722809 120.01382568 487.18695618 119.15265137 487.18667603 118.26538086 C487.16075813 100.41894312 485.96639495 83.45213776 482 66 C481.70900842 64.6433635 481.41866438 63.28658798 481.12890625 61.9296875 C478.00498217 47.65290796 473.32379855 33.95738506 467.8828125 20.40625 C467 18 467 18 467 16 C482.35683387 19.11545553 498.39804749 30.85860796 511 40 C512.05058594 40.75925781 513.10117187 41.51851562 514.18359375 42.30078125 C517.1562281 44.49333576 520.08526564 46.73119015 523 49 C523.88945313 49.68320312 524.77890625 50.36640625 525.6953125 51.0703125 C547.12989059 68.00550394 563.42097991 88.93089236 572 115 C572.51433594 116.48306641 572.51433594 116.48306641 573.0390625 117.99609375 C576.40497206 129.58803463 575.18318817 142.09276919 575 154 C586.22 154 597.44 154 609 154 C606.24328591 178.81042677 594.91204574 199.00384877 578 217 C577.46117187 217.61488281 576.92234375 218.22976563 576.3671875 218.86328125 C565.80300096 230.40956553 546.46123598 240.84261823 531 243 C531.95338926 246.37287933 532.91643865 249.73341562 533.96484375 253.078125 C544.99884826 289.06050117 542.4795188 327.66942017 525.125 361.125 C520.737146 369.33205084 516.08517227 376.92654245 510 384 C509.27296875 384.85207031 508.5459375 385.70414063 507.796875 386.58203125 C505.57993634 389.1051555 503.30722899 391.55935981 501 394 C500.24203125 394.82242187 499.4840625 395.64484375 498.703125 396.4921875 C488.39864093 407.30179334 476.05873484 414.95450943 463 422 C462.25105469 422.40992188 461.50210938 422.81984375 460.73046875 423.2421875 C452.06950564 427.793162 442.90360457 430.39049822 433.4375 432.6875 C432.56327393 432.90204834 431.68904785 433.11659668 430.78833008 433.33764648 C420.95494099 435.6464514 411.32923034 436.19557566 401.25 436.1875 C400.1973999 436.18669434 399.1447998 436.18588867 398.06030273 436.18505859 C362.79500362 435.90834035 330.24972524 421.35100621 305 397 C303.95199219 395.82244141 303.95199219 395.82244141 302.8828125 394.62109375 C298.96673965 390.05288021 298.96673965 390.05288021 293.3125 388.75 C291.25539754 389.22991812 291.25539754 389.22991812 289 390 C287.98421875 390.30292969 286.9684375 390.60585938 285.921875 390.91796875 C283.75415844 391.57584552 281.59318099 392.25656245 279.44140625 392.96484375 C271.271723 395.42223996 262.91536463 396.73720605 254.5 398.0625 C253.42363281 398.23587891 252.34726562 398.40925781 251.23828125 398.58789062 C241.61350589 400.1177727 232.25127213 401.15837413 222.5 401.23828125 C221.51454697 401.24802979 220.52909393 401.25777832 219.51377869 401.26782227 C199.28778328 401.42691374 179.81317173 401.47943797 160 397 C157.92002745 396.57182875 155.83926788 396.14746622 153.7578125 395.7265625 C145.43146469 394.00834524 137.26291974 392.21880278 129.20678711 389.47290039 C126.70113578 388.93595531 125.37701835 389.07779772 123 390 C121.15749273 391.72808405 119.457866 393.46067705 117.75 395.3125 C103.13822203 410.50021332 85.53629843 420.52701335 66 428 C65.17886719 428.31839844 64.35773438 428.63679688 63.51171875 428.96484375 C58.61461049 430.72399914 53.55217036 431.90282376 48.5 433.125 C47.79939453 433.29604248 47.09878906 433.46708496 46.37695312 433.64331055 C15.04904971 440.96069712 -20.32392514 435.02055961 -48 419 C-48.58313965 418.6685498 -49.1662793 418.33709961 -49.76708984 417.99560547 C-57.39093813 413.6278424 -64.33162425 408.70952434 -71 403 C-71.80953125 402.32453125 -72.6190625 401.6490625 -73.453125 400.953125 C-97.33464241 380.37596849 -111.44458772 352.4796038 -118 322 C-118.26554687 320.84628906 -118.53109375 319.69257812 -118.8046875 318.50390625 C-123.42623288 294.66812769 -120.48957049 264.66152968 -109 243 C-109.87398437 242.87044922 -109.87398437 242.87044922 -110.765625 242.73828125 C-134.81268174 238.61700895 -155.7086293 222.4897056 -169.6875 203.0625 C-170.80613107 201.3845534 -171.91013888 199.6967743 -173 198 C-173.58523437 197.12214844 -174.17046875 196.24429688 -174.7734375 195.33984375 C-182.17350173 183.59345359 -188 168.03302168 -188 154 C-176.78 154 -165.56 154 -154 154 C-154.07845422 145.93869948 -154.07845422 145.93869948 -154.18017578 137.87768555 C-154.31871936 109.35782043 -140.1231656 86.1454732 -121 66 C-120.54173828 65.50918945 -120.08347656 65.01837891 -119.61132812 64.51269531 C-99.10835955 42.66192203 -73.52576794 28.34572623 -47 15 C-46 17 -46 17 -46.50976562 18.72631836 C-46.95352539 19.77251343 -46.95352539 19.77251343 -47.40625 20.83984375 C-47.73463867 21.64123779 -48.06302734 22.44263184 -48.40136719 23.26831055 C-48.76391602 24.14914307 -49.12646484 25.02997559 -49.5 25.9375 C-57.74454085 46.85993255 -62.3368679 68.71165995 -65 91 C-65.08710739 91.70614441 -65.17421478 92.41228882 -65.26396179 93.13983154 C-66.03656453 99.96305475 -66.12962825 106.70859 -66.09765625 113.5703125 C-66.0962413 114.73255341 -66.09482635 115.89479431 -66.09336853 117.09225464 C-66.08781342 120.76986366 -66.07526941 124.44740967 -66.0625 128.125 C-66.05747919 130.63281161 -66.05291731 133.14062419 -66.04882812 135.6484375 C-66.03871366 141.76566825 -66.01912965 147.88276437 -66 154 C-54.78 154 -43.56 154 -32 154 C-32.33 149.38 -32.66 144.76 -33 140 C-33.08939664 137.27693333 -33.15145996 134.55260867 -33.16796875 131.828125 C-33.17438889 130.79898483 -33.17438889 130.79898483 -33.18093872 129.74905396 C-33.1907307 127.58263233 -33.19102722 125.41643903 -33.1875 123.25 C-33.18656342 122.50099426 -33.18562683 121.75198853 -33.18466187 120.98028564 C-33.10492839 91.50246568 -27.5250676 62.58744426 -17 35 C-16.66742188 34.09765625 -16.33484375 33.1953125 -15.9921875 32.265625 C-11.62790481 21.08013009 -5.63160169 10.58262291 0 0 Z " transform="translate(220,473)" style="fill: #F6F5F7;"/><path d="M0 0 C0.97453125 0.29390625 1.9490625 0.5878125 2.953125 0.890625 C35.59662486 10.92075066 65.90306778 30.57765573 90.21386719 54.26074219 C91.95752494 55.95863965 93.71616792 57.63979969 95.4765625 59.3203125 C135.98520601 98.40276065 154.08246878 154.3309079 155.1640625 209.4921875 C155.54253165 234.62729119 153.61452912 259.80016601 143 283 C142.46439728 284.25892473 141.92928746 285.51805921 141.39453125 286.77734375 C134.18908395 303.31664027 123.7737337 317.33052466 111 330 C110.51031738 330.48694336 110.02063477 330.97388672 109.51611328 331.47558594 C90.64957606 350 90.64957606 350 85 350 C85.01571045 349.14470703 85.0314209 348.28941406 85.04760742 347.40820312 C85.63303339 325.00603923 85.63303339 325.00603923 82 303 C81.69010415 301.69431878 81.38156107 300.3883159 81.07421875 299.08203125 C75.2792408 275.93517065 62.60544877 254.83479859 47 237 C46.54367187 236.47664062 46.08734375 235.95328125 45.6171875 235.4140625 C38.94914184 227.81890888 32.00371958 221.2106014 24 215 C23.21367188 214.33613281 22.42734375 213.67226563 21.6171875 212.98828125 C6.54405526 200.32784509 -12.14860355 191.09059783 -30.98632812 185.59863281 C-32.36855403 185.1877189 -33.74477409 184.75621199 -35.11523438 184.30761719 C-55.8631816 177.54118603 -78.88130879 177.88705371 -100 183 C-101.26585937 183.25523437 -102.53171875 183.51046875 -103.8359375 183.7734375 C-132.97663032 189.89717983 -157.78542143 206.80564161 -179 227 C-180.13501953 228.03833984 -180.13501953 228.03833984 -181.29296875 229.09765625 C-204.81625512 251.33551714 -223.88353541 286.41365469 -226 319 C-226.11517951 324.37598593 -226.09522509 329.74820589 -226.0625 335.125 C-226.05747252 336.57291511 -226.05291183 338.02083192 -226.04882812 339.46875 C-226.03792705 342.97920259 -226.02073202 346.48959007 -226 350 C-235.39347877 345.38563798 -243.05177546 338.55331056 -250.55810547 331.37451172 C-251.89237919 330.10259146 -253.2443017 328.84925482 -254.59765625 327.59765625 C-273.54491595 309.55121714 -285.66791516 285.58858779 -291.8125 260.375 C-292.0074707 259.57747314 -292.20244141 258.77994629 -292.40332031 257.95825195 C-295.86078368 242.75486477 -296.40565881 227.64679412 -296.375 212.125 C-296.37478851 211.13510071 -296.37457703 210.14520142 -296.37435913 209.12530518 C-296.3409223 193.41633361 -295.47412853 178.37523112 -292 163 C-291.72712158 161.74074707 -291.72712158 161.74074707 -291.44873047 160.45605469 C-287.22609901 141.41459058 -280.21622261 123.1572446 -271 106 C-270.24783203 104.53046875 -270.24783203 104.53046875 -269.48046875 103.03125 C-255.06176449 75.38546993 -232.05819439 51.19214858 -207 33 C-206.45456543 32.60345215 -205.90913086 32.2069043 -205.34716797 31.79833984 C-189.94213898 20.75211565 -172.91220852 11.2292457 -155 5 C-152.99501848 4.15759284 -150.99502718 3.30321775 -149 2.4375 C-101.87214715 -17.2348547 -47.8976697 -16.10532999 0 0 Z " transform="translate(501,122)" style="fill: #F6F6F7;"/><path d="M0 0 C3.22035492 1.4827564 5.27693182 3.17338888 7.70043945 5.78100586 C31.03933383 30.87181725 65.68218921 46.2966555 98 56 C98.73524902 56.22526367 99.47049805 56.45052734 100.22802734 56.68261719 C110.22965407 59.72234853 120.16159657 61.88303263 130.5 63.421875 C134 64 134 64 136 65 C143.56869117 66.34028906 151.23999549 67.18390818 158.875 68.0625 C159.54402344 68.14169678 160.21304688 68.22089355 160.90234375 68.30249023 C176.5689587 70.0466823 192.19027265 70.15765732 207.93652344 70.13037109 C211.62439057 70.12500089 215.3121365 70.13035023 219 70.13671875 C230.37729831 70.14012635 241.66834194 70.11341839 253 69 C254.38148949 68.89165989 255.76299712 68.78355065 257.14453125 68.67578125 C289.0482891 65.51598415 324.81663872 59.621839 353.31640625 44.38671875 C355.43362526 43.29266817 357.53858296 42.29641775 359.71484375 41.33203125 C380.19019327 32.20178565 398.26475753 19.61468403 414.5390625 4.25 C417 2 417 2 420 0 C430.02330479 14.05196427 436.48012427 30.72692374 442 47 C442.25910156 47.76248047 442.51820313 48.52496094 442.78515625 49.31054688 C446.52498223 60.52099141 448.97092451 71.50766027 450.45703125 83.23046875 C450.58477565 86.78446607 450.58477565 86.78446607 452 88 C456.32663944 113.28435473 455.22713148 140.96612612 450 166 C445.0057179 165.3741016 440.24012541 164.35779175 435.375 163.0625 C399.61670786 154.00831706 362.98855511 159.10014765 331.14550781 177.69726562 C321.61715558 183.4828013 313.04661326 190.28237944 305 198 C304.25363281 198.69480469 303.50726562 199.38960937 302.73828125 200.10546875 C286.06508381 216.08031237 274.96855206 236.53965552 268.3125 258.5 C268.10971436 259.16394775 267.90692871 259.82789551 267.69799805 260.51196289 C264.46248394 271.68563185 263.67499765 282.58659662 263.73925781 294.14477539 C263.74996848 296.43077203 263.73930728 298.71598032 263.7265625 301.00195312 C263.71416298 312.6939121 264.69974384 323.87119345 268.3125 335.0625 C268.63190552 336.05866333 268.63190552 336.05866333 268.95776367 337.07495117 C270.70219066 342.39376203 272.79199605 347.53599118 275.08203125 352.64453125 C276 355 276 355 276 358 C267.0941343 360.24642195 258.20127259 362.25517504 249.125 363.6875 C248.37822998 363.80649658 247.63145996 363.92549316 246.86206055 364.0480957 C234.62862871 365.90635547 222.47763888 366.2771931 210.125 366.3125 C209.24715851 366.31511841 208.36931702 366.31773682 207.46487427 366.32043457 C186.32987213 366.32715011 165.22298529 364.56635792 145 358 C145.58753709 353.66772099 146.66185035 349.97980301 148.3125 345.9375 C150.05888086 341.49079036 151.72129384 337.04744392 153.1875 332.5 C153.49042969 331.5615625 153.79335938 330.623125 154.10546875 329.65625 C156.64739737 319.26653301 157.36005759 309.04513162 157.3125 298.375 C157.30758545 297.06265381 157.3026709 295.75030762 157.29760742 294.39819336 C157.10524513 278.3472861 154.75132486 263.9774085 149 249 C148.608125 247.96488281 148.21625 246.92976562 147.8125 245.86328125 C134.2506527 211.73560631 107.77788779 184.9812542 74.375 169.875 C43.59898211 157.19257505 9.6442991 154.866396 -22.08203125 165.328125 C-25.19608251 166.04514885 -26.93851013 165.71594939 -30 165 C-36.90630267 120.97844307 -32.92858942 76.75071265 -17 35 C-16.66742188 34.09765625 -16.33484375 33.1953125 -15.9921875 32.265625 C-11.62790481 21.08013009 -5.63160169 10.58262291 0 0 Z " transform="translate(220,473)" style="fill: #F6F6F7;"/><path d="M0 0 C1.00202454 0.00373123 1.00202454 0.00373123 2.02429199 0.00753784 C19.2976875 0.10715821 33.63879387 3.47335497 49.4375 10.3125 C50.38367188 10.71339844 51.32984375 11.11429688 52.3046875 11.52734375 C71.34361652 20.29773564 85.96651362 36.64797162 100.4375 51.3125 C101.86723756 50.88428169 103.29691078 50.45584857 104.7265625 50.02734375 C105.6434082 49.7526123 106.56025391 49.47788086 107.50488281 49.19482422 C109.4010883 48.62432084 111.29634281 48.05064282 113.19042969 47.47314453 C123.70992733 44.2676085 134.20753675 41.15274632 145 39 C145.73460449 38.85312744 146.46920898 38.70625488 147.22607422 38.55493164 C149.62476786 38.10210354 152.02761952 37.70152102 154.4375 37.3125 C155.4790625 37.13444824 156.520625 36.95639648 157.59375 36.77294922 C167.89319572 35.1837549 178.03092547 35.00570263 188.43408203 35.05175781 C191.30132312 35.06245829 194.16793429 35.05181225 197.03515625 35.0390625 C211.54227662 35.02758708 225.7018 36.07058572 239.9375 39 C240.74082764 39.16298584 241.54415527 39.32597168 242.37182617 39.49389648 C249.57037993 41.01652323 256.6619042 42.90683204 263.75 44.875 C264.80574219 45.16785889 265.86148437 45.46071777 266.94921875 45.76245117 C271.23680156 46.98486693 275.37445182 48.19857328 279.41796875 50.08984375 C282.71440212 51.42462207 283.27613688 51.6320192 286.4375 50.3125 C289.03667048 48.07978408 289.03667048 48.07978408 291.69140625 45.24609375 C292.44284157 44.47761864 292.44284157 44.47761864 293.2094574 43.69361877 C295.34248041 41.51195299 297.45777327 39.31342784 299.57348633 37.11499023 C322.61539441 13.25157237 349.69868127 0.8105509 382.95263672 0.09521484 C414.54664536 -0.28271741 441.68240309 11.80893342 464.4375 33.3125 C465.1490625 33.97121094 465.860625 34.62992188 466.59375 35.30859375 C471.67297645 40.1631621 475.66927411 45.39218012 479.4375 51.3125 C480.09878906 52.34117188 480.76007812 53.36984375 481.44140625 54.4296875 C487.02409138 63.60351164 490.39174762 73.04746426 493.4375 83.3125 C493.98277344 85.03146484 493.98277344 85.03146484 494.5390625 86.78515625 C501.38395968 113.65881778 496.06547293 144.56535358 482.59033203 168.43261719 C478.7246277 174.73628584 474.06140241 180.55361791 469.4375 186.3125 C468.98914795 186.87195313 468.5407959 187.43140625 468.07885742 188.0078125 C465.88450945 190.69784542 463.69287555 193.12337253 461 195.3125 C459.47732818 196.64373339 457.95687438 197.97750438 456.4375 199.3125 C455.85564941 199.80814453 455.27379883 200.30378906 454.67431641 200.81445312 C446.42848837 207.35128812 446.42848837 207.35128812 441.87890625 216.3125 C442.4072353 219.24119017 443.2772068 221.5693148 444.4375 224.3125 C455.4428279 256.81507286 456.62374835 296.63790135 451.4375 330.3125 C451.293125 331.28058594 451.14875 332.24867188 451 333.24609375 C449.5943276 341.69267882 447.39690906 349.9850115 445.4375 358.3125 C433.5575 358.3125 421.6775 358.3125 409.4375 358.3125 C410.55750503 350.47246482 410.55750503 350.47246482 411.55859375 346.81640625 C417.24079354 325.51839232 417.81673854 305.19486229 417.4375 283.3125 C417.42348145 282.41789062 417.40946289 281.52328125 417.39501953 280.6015625 C416.98957903 261.27417187 413.44275226 241.66920012 407.4375 223.3125 C407.16454102 222.46655273 406.89158203 221.62060547 406.61035156 220.74902344 C393.46675901 180.6792203 367.91876336 144.70516578 334.01904297 119.49267578 C332.60540047 118.43779035 331.20959944 117.35909286 329.81640625 116.27734375 C310.81962729 101.84453353 289.02523609 90.83203021 266.4375 83.3125 C264.7493267 82.64754014 263.06181077 81.98090864 261.375 81.3125 C249.03080073 76.80705042 235.45664591 73.96394338 222.4375 72.3125 C221.75494141 72.22371582 221.07238281 72.13493164 220.36914062 72.04345703 C179.05370486 66.82179177 135.94736409 72.66352802 98.4375 91.3125 C97.16148034 91.93754493 95.88543674 92.56254098 94.609375 93.1875 C74.19766221 103.24142611 55.47240555 114.75978974 38.6953125 130.2421875 C36.67274746 132.09678866 34.60266016 133.86285161 32.5 135.625 C2.85934471 161.71587621 -16.85433621 200.57828617 -26.1875 238.4375 C-26.38158447 239.20457275 -26.57566895 239.97164551 -26.77563477 240.76196289 C-30.62568398 257.02878802 -32.06521104 273.34316721 -31.95361328 290.02416992 C-31.93748346 292.87792561 -31.95360707 295.73027002 -31.97265625 298.58398438 C-31.99237115 315.75474259 -29.61277821 332.08180182 -25.4296875 348.7109375 C-24.66643999 351.88082132 -24.09851911 355.09638531 -23.5625 358.3125 C-35.1125 358.3125 -46.6625 358.3125 -58.5625 358.3125 C-61.85947735 349.7403589 -64.5454856 342.65524958 -65.875 333.8125 C-66.03959717 332.73081543 -66.20419434 331.64913086 -66.3737793 330.53466797 C-68.51170635 314.561854 -67.97379007 298.38498356 -67.5625 282.3125 C-67.53494629 281.19327148 -67.50739258 280.07404297 -67.47900391 278.92089844 C-67.40183259 276.21677967 -67.3052763 273.51512759 -67.1875 270.8125 C-67.141698 269.75893311 -67.141698 269.75893311 -67.0949707 268.68408203 C-66.42927546 257.2835363 -63.97404548 246.11815573 -61.5 235 C-60.96413674 232.58797282 -60.43149463 230.17522738 -59.90234375 227.76171875 C-59.66894287 226.71330811 -59.43554199 225.66489746 -59.19506836 224.5847168 C-58.88194702 222.96496948 -58.88194702 222.96496948 -58.5625 221.3125 C-58.40430283 220.6586734 -58.24610565 220.0048468 -58.08311462 219.33120728 C-57.54957153 216.96983256 -57.54957153 216.96983256 -57.5625 213.3125 C-59.18504274 210.90902774 -60.40270893 209.49108213 -62.51171875 207.625 C-63.03599457 207.12475815 -63.56027039 206.6245163 -64.10043335 206.1091156 C-65.22036011 205.04297332 -66.34966343 203.98660848 -67.48733521 202.93942261 C-70.44178695 200.21249214 -73.315814 197.40328141 -76.1953125 194.59765625 C-77.04178093 193.77697411 -77.04178093 193.77697411 -77.90534973 192.93971252 C-92.3872716 178.80110028 -101.68981123 161.60250618 -107.5625 142.3125 C-107.75859863 141.6726416 -107.95469727 141.0327832 -108.15673828 140.37353516 C-113.07438382 123.81920427 -112.54517293 107.21431327 -109.5625 90.3125 C-109.418125 89.4875 -109.27375 88.6625 -109.125 87.8125 C-108.68549235 85.61496173 -108.15536634 83.47359345 -107.5625 81.3125 C-107.33175781 80.45011719 -107.10101563 79.58773437 -106.86328125 78.69921875 C-102.6067842 64.46595484 -94.92092594 51.74666704 -85.5625 40.3125 C-84.95921875 39.55710938 -84.3559375 38.80171875 -83.734375 38.0234375 C-82.40366573 36.40203931 -80.99245406 34.84708484 -79.5625 33.3125 C-78.9025 33.3125 -78.2425 33.3125 -77.5625 33.3125 C-77.5625 32.6525 -77.5625 31.9925 -77.5625 31.3125 C-74.09515934 28.07587593 -70.30811708 25.21883029 -66.5625 22.3125 C-65.77230469 21.69632813 -64.98210937 21.08015625 -64.16796875 20.4453125 C-51.88973721 11.36736959 -38.27757958 5.97838687 -23.5625 2.3125 C-22.90499756 2.12631104 -22.24749512 1.94012207 -21.57006836 1.74829102 C-14.44310368 -0.11397732 -7.32839041 -0.03243055 0 0 Z " transform="translate(237.5625,40.6875)" style="fill: #2968FD;"/><path d="M0 0 C15.35683387 3.11545553 31.39804749 14.85860796 44 24 C45.05058594 24.75925781 46.10117187 25.51851562 47.18359375 26.30078125 C50.1562281 28.49333576 53.08526564 30.73119015 56 33 C56.88945313 33.68320312 57.77890625 34.36640625 58.6953125 35.0703125 C80.12989059 52.00550394 96.42097991 72.93089236 105 99 C105.51433594 100.48306641 105.51433594 100.48306641 106.0390625 101.99609375 C109.40497206 113.58803463 108.18318817 126.09276919 108 138 C119.22 138 130.44 138 142 138 C139.24328591 162.81042677 127.91204574 183.00384877 111 201 C110.46117187 201.61488281 109.92234375 202.22976563 109.3671875 202.86328125 C100.34914654 212.71968281 87.2141619 219.02800478 75 224 C74.34 224 73.68 224 73 224 C73 223.34 73 222.68 73 222 C56.5 222.33 40 222.66 23 223 C23 225.7156358 24.28161253 227.43250356 25.59106445 229.74487305 C38.74037259 253.04236689 42.6597321 280.97550554 36.03515625 307.015625 C30.85054892 325.56938842 21.16802676 341.05461209 8 355 C7.41347656 355.639375 6.82695313 356.27875 6.22265625 356.9375 C1.6640813 361.7427743 -3.45762462 365.40147222 -9 369 C-10.27230469 369.86625 -10.27230469 369.86625 -11.5703125 370.75 C-20.96048833 376.74259084 -31.38771694 379.84420201 -42 383 C-43.22976563 383.38929688 -44.45953125 383.77859375 -45.7265625 384.1796875 C-51.89723417 385.65794826 -58.3213006 385.32811868 -64.625 385.3125 C-65.90246094 385.32861328 -67.17992187 385.34472656 -68.49609375 385.36132812 C-96.2584448 385.37539213 -120.45352927 373.38550451 -140.0625 354.3125 C-158.25292335 336.02393726 -170.22712009 309.48536029 -170.1875 283.5625 C-170.08482374 261.79513273 -164.81514428 243.79099053 -154 225 C-153.67 224.34 -153.34 223.68 -153 223 C-165.21 222.67 -177.42 222.34 -190 222 C-187.53953501 207.23721008 -174.92901108 194.63354486 -165 184 C-163.85917969 182.76056641 -163.85917969 182.76056641 -162.6953125 181.49609375 C-138.21183963 155.8486525 -103.06847116 142.56963958 -68.08935547 141.59594727 C-50.53807553 141.40200265 -33.67230346 144.6512064 -17 150 C-16.93941406 149.21496094 -16.87882813 148.42992187 -16.81640625 147.62109375 C-16.37179786 142.04638852 -15.87875357 136.52359384 -15 131 C-14.67 131 -14.34 131 -14 131 C-14 133.31 -14 135.62 -14 138 C-3.11 138 7.78 138 19 138 C19.85601086 126.39426562 19.85601086 126.39426562 20.16796875 114.8046875 C20.1721582 114.01244781 20.17634766 113.22020813 20.18066406 112.40396118 C20.19026883 109.8942543 20.1904826 107.38472186 20.1875 104.875 C20.18722809 104.01382568 20.18695618 103.15265137 20.18667603 102.26538086 C20.16075813 84.41894312 18.96639495 67.45213776 15 50 C14.70900842 48.6433635 14.41866438 47.28658798 14.12890625 45.9296875 C11.00498217 31.65290796 6.32379855 17.95738506 0.8828125 4.40625 C0 2 0 2 0 0 Z " transform="translate(687,489)" style="fill: #F6F5F7;"/><path d="M0 0 C0.33 0.66 0.66 1.32 1 2 C13.21 2 25.42 2 38 2 C38 6.00200843 36.16504664 8.61047716 34.25 12 C22.03000538 34.23963887 17.98979387 61.41117092 25 86 C25.29003906 87.03592285 25.29003906 87.03592285 25.5859375 88.09277344 C30.24344781 104.37249698 37.51256737 118.4475074 49 131 C49.81984375 131.91265625 50.6396875 132.8253125 51.484375 133.765625 C62.70673403 145.65202895 75.88055158 153.11016046 91 159 C91.86496094 159.33773437 92.72992187 159.67546875 93.62109375 160.0234375 C115.23030192 167.8042932 140.84230512 166.12853321 162 158 C162.84691406 157.68192383 163.69382812 157.36384766 164.56640625 157.03613281 C190.61032253 146.99145895 209.88254969 126.17731277 221.13183594 101.04833984 C231.53945822 76.49267311 231.50798404 48.65013439 222.53515625 23.625 C219.80229458 17.17183045 216.45262245 11.09049053 213 5 C212.67 4.34 212.34 3.68 212 3 C214.46161017 1.76919491 216.06496993 1.87956023 218.81689453 1.88647461 C219.81778107 1.88655014 220.8186676 1.88662567 221.84988403 1.88670349 C222.93325043 1.89186478 224.01661682 1.89702606 225.1328125 1.90234375 C226.23978485 1.9037587 227.3467572 1.90517365 228.48727417 1.90663147 C232.03320993 1.91224228 235.57908323 1.92479663 239.125 1.9375 C241.52473867 1.94251361 243.92447833 1.94707675 246.32421875 1.95117188 C252.21616725 1.96221522 258.10807916 1.9789639 264 2 C263.67 2.99 263.34 3.98 263 5 C261.15234375 5.73046875 261.15234375 5.73046875 258.9375 6.1875 C258.20402344 6.34605469 257.47054687 6.50460937 256.71484375 6.66796875 C256.14894531 6.77753906 255.58304688 6.88710938 255 7 C255.95338926 10.37287933 256.91643865 13.73341562 257.96484375 17.078125 C268.99884826 53.06050117 266.4795188 91.66942017 249.125 125.125 C244.737146 133.33205084 240.08517227 140.92654245 234 148 C232.90945313 149.27810547 232.90945313 149.27810547 231.796875 150.58203125 C229.57993634 153.1051555 227.30722899 155.55935981 225 158 C224.24203125 158.82242188 223.4840625 159.64484375 222.703125 160.4921875 C212.39864093 171.30179334 200.05873484 178.95450943 187 186 C186.25105469 186.40992188 185.50210938 186.81984375 184.73046875 187.2421875 C176.06950564 191.793162 166.90360457 194.39049822 157.4375 196.6875 C156.56327393 196.90204834 155.68904785 197.11659668 154.78833008 197.33764648 C144.95494099 199.6464514 135.32923034 200.19557566 125.25 200.1875 C124.1973999 200.18669434 123.1447998 200.18588867 122.06030273 200.18505859 C86.79500362 199.90834035 54.24972524 185.35100621 29 161 C27.95199219 159.82244141 27.95199219 159.82244141 26.8828125 158.62109375 C22.96673965 154.05288021 22.96673965 154.05288021 17.3125 152.75 C15.25539754 153.22991812 15.25539754 153.22991812 13 154 C11.98421875 154.30292969 10.9684375 154.60585938 9.921875 154.91796875 C7.75415844 155.57584552 5.59318099 156.25656245 3.44140625 156.96484375 C-4.728277 159.42223996 -13.08463537 160.73720605 -21.5 162.0625 C-22.57636719 162.23587891 -23.65273438 162.40925781 -24.76171875 162.58789062 C-34.38649411 164.1177727 -43.74872787 165.15837413 -53.5 165.23828125 C-54.48545303 165.24802979 -55.47090607 165.25777832 -56.48622131 165.26782227 C-76.71221672 165.42691374 -96.18682827 165.47943797 -116 161 C-118.07997255 160.57182875 -120.16073212 160.14746622 -122.2421875 159.7265625 C-130.56853531 158.00834524 -138.73708026 156.21880278 -146.79321289 153.47290039 C-149.29886422 152.93595531 -150.62298165 153.07779772 -153 154 C-154.84250727 155.72808405 -156.542134 157.46067705 -158.25 159.3125 C-172.86177797 174.50021332 -190.46370157 184.52701335 -210 192 C-210.82113281 192.31839844 -211.64226562 192.63679687 -212.48828125 192.96484375 C-217.38538951 194.72399914 -222.44782964 195.90282376 -227.5 197.125 C-228.20060547 197.29604248 -228.90121094 197.46708496 -229.62304688 197.64331055 C-260.95095029 204.96069712 -296.32392514 199.02055961 -324 183 C-324.58313965 182.6685498 -325.1662793 182.33709961 -325.76708984 181.99560547 C-333.39093813 177.6278424 -340.33162425 172.70952434 -347 167 C-347.80953125 166.32453125 -348.6190625 165.6490625 -349.453125 164.953125 C-373.33464241 144.37596849 -387.44458772 116.4796038 -394 86 C-394.26554687 84.84628906 -394.53109375 83.69257812 -394.8046875 82.50390625 C-399.42623288 58.66812769 -396.48957049 28.66152968 -385 7 C-385.65226562 6.87882813 -386.30453125 6.75765625 -386.9765625 6.6328125 C-391.78646342 5.71056011 -396.39025465 4.69832723 -401 3 C-401 2.67 -401 2.34 -401 2 C-382.52 2 -364.04 2 -345 2 C-345.83453328 7.00719966 -346.46505395 9.32828296 -348.75 13.5625 C-361.29868852 38.05802148 -363.76375864 65.15682978 -355.93359375 91.6015625 C-351.3933025 105.11754503 -345.0674115 116.99920655 -336 128 C-335.25105469 128.92554688 -334.50210938 129.85109375 -333.73046875 130.8046875 C-317.6823139 149.59406946 -294.36221304 160.87997903 -270 164 C-265.51628682 164.26318705 -261.05282846 164.28042572 -256.5625 164.25 C-255.42490234 164.25773438 -254.28730469 164.26546875 -253.11523438 164.2734375 C-241.66913651 164.24731976 -231.50020607 162.70530468 -220.9375 158.25 C-220.07116943 157.89147949 -219.20483887 157.53295898 -218.31225586 157.16357422 C-191.57671614 145.92737085 -172.00412104 126.75689939 -160.78857422 99.95117188 C-155.51949241 86.91386481 -153.58519772 74.91867599 -153.625 60.875 C-153.62521149 60.18746643 -153.62542297 59.49993286 -153.62564087 58.79156494 C-153.65794239 48.27841419 -154.39308844 38.92490043 -158 29 C-158.37382812 27.87335937 -158.74765625 26.74671875 -159.1328125 25.5859375 C-161.58121276 18.66231558 -164.81689881 12.56326652 -168.7421875 6.36328125 C-169.15726563 5.58339844 -169.57234375 4.80351563 -170 4 C-169.67 3.34 -169.34 2.68 -169 2 C-156.46 1.67 -143.92 1.34 -131 1 C-118.66376766 29.78454213 -112.37660706 62.04511141 -121 93 C-121.27336182 93.98347412 -121.27336182 93.98347412 -121.55224609 94.98681641 C-124.15954103 104.19403084 -127.42856284 113.12459871 -131 122 C-130.319375 122.10957031 -129.63875 122.21914063 -128.9375 122.33203125 C-121.81067799 123.49772155 -114.7224937 124.80850775 -107.640625 126.21875 C-94.93381727 128.45571779 -82.57413901 129.32457645 -69.69189453 129.26074219 C-67.13419749 129.25003849 -64.577207 129.26070056 -62.01953125 129.2734375 C-43.91348972 129.28907818 -25.85893281 127.43688697 -8.3125 122.8125 C-5.33910469 122.08317662 -3.02674814 121.9329681 0 122 C-0.44730469 120.98164062 -0.89460938 119.96328125 -1.35546875 118.9140625 C-4.66318503 111.23091453 -7.62562587 103.56360076 -9.875 95.5 C-10.17893677 94.42613037 -10.17893677 94.42613037 -10.48901367 93.33056641 C-18.45676561 63.584751 -13.92062664 27.19237854 0 0 Z " transform="translate(496,709)" style="fill: #B62BFD;"/><path d="M0 0 C33.00561159 -0.57313115 61.55760747 13.12815356 85.44921875 35.12109375 C86.3928125 35.9821875 87.33640625 36.84328125 88.30859375 37.73046875 C109.13414899 57.61475596 123.67684747 84.5705593 124.69140625 113.62109375 C124.97071375 128.01033005 125.12129581 143.87633905 116.44921875 156.12109375 C114.19384766 157.36352539 114.19384766 157.36352539 111.55078125 158.21875 C110.56754883 158.5398877 109.58431641 158.86102539 108.57128906 159.19189453 C92.54967664 163.96029122 76.46811031 167.53103175 59.94921875 169.99609375 C59.25979187 170.09936981 58.57036499 170.20264587 57.86004639 170.30905151 C45.17742341 172.18477882 32.66028692 173.27597975 19.8359375 173.2890625 C18.66448685 173.2923909 17.49303619 173.2957193 16.28608704 173.29914856 C13.8179259 173.30418062 11.34975805 173.30655805 8.8815918 173.30639648 C5.18461282 173.30856565 1.48794134 173.32671418 -2.20898438 173.34570312 C-21.38846369 173.3919524 -40.36886046 172.49231918 -59.30078125 169.24609375 C-60.33533447 169.07319824 -61.3698877 168.90030273 -62.43579102 168.72216797 C-65.47727395 168.20473824 -68.51454491 167.66840254 -71.55078125 167.12109375 C-72.42782715 166.96382812 -73.30487305 166.8065625 -74.20849609 166.64453125 C-83.1082552 165.0103409 -91.79965118 162.92647673 -100.42578125 160.18359375 C-101.16948975 159.95494629 -101.91319824 159.72629883 -102.67944336 159.49072266 C-108.06572824 157.6826432 -111.97584926 155.25950367 -114.625 149.98046875 C-114.82738281 149.284375 -115.02976562 148.58828125 -115.23828125 147.87109375 C-115.44839844 147.1853125 -115.65851563 146.49953125 -115.875 145.79296875 C-116.20951172 144.47039062 -116.20951172 144.47039062 -116.55078125 143.12109375 C-116.71924561 142.52796387 -116.88770996 141.93483398 -117.0612793 141.32373047 C-123.68318527 115.75705357 -117.33385885 88.55105764 -104.55078125 66.12109375 C-92.67737908 46.48595711 -76.61589675 30.73951154 -57.55078125 18.12109375 C-56.80828125 17.61964844 -56.06578125 17.11820312 -55.30078125 16.6015625 C-38.78039709 6.02516791 -19.47400091 0.66412984 0 0 Z " transform="translate(427.55078125,335.87890625)" style="fill: #F6F6F7;"/><path d="M0 0 C1 2 1 2 0.49023438 3.72631836 C0.04647461 4.77251343 0.04647461 4.77251343 -0.40625 5.83984375 C-0.73463867 6.64123779 -1.06302734 7.44263184 -1.40136719 8.26831055 C-1.76391602 9.14914307 -2.12646484 10.02997559 -2.5 10.9375 C-10.74454085 31.85993255 -15.3368679 53.71165995 -18 76 C-18.08710739 76.70614441 -18.17421478 77.41228882 -18.26396179 78.13983154 C-19.03656453 84.96305475 -19.12962825 91.70859 -19.09765625 98.5703125 C-19.0962413 99.73255341 -19.09482635 100.89479431 -19.09336853 102.09225464 C-19.08781342 105.76986366 -19.07526941 109.44740967 -19.0625 113.125 C-19.05747919 115.63281161 -19.05291731 118.14062419 -19.04882812 120.6484375 C-19.03871366 126.76566825 -19.01912965 132.88276437 -19 139 C-7.78 139 3.44 139 15 139 C15.33 137.68 15.66 136.36 16 135 C16.99 142.425 16.99 142.425 18 150 C21.95485734 149.34085711 25.6510673 148.61365027 29.50195312 147.59082031 C66.9975677 137.67629075 104.32765891 143.53099441 137.83569336 162.83398438 C159.78060735 175.85738219 180.71008146 196.3401873 191 220 C191 220.99 191 221.98 191 223 C185.81116826 223.49399153 180.6270076 223.88808012 175.42382812 224.19628906 C173.66079962 224.31412479 171.89928086 224.45777956 170.140625 224.62890625 C155.93645279 225.98475905 155.93645279 225.98475905 151.04962158 222.68173218 C147.53975447 219.41999315 144.85835694 215.68312573 142.22003174 211.70562744 C130.76569224 195.69224421 105.35418854 183.37696283 86.4296875 179.890625 C69.40483321 177.23114915 51.46916323 177.81020931 35 183 C33.84757813 183.36222656 32.69515625 183.72445312 31.5078125 184.09765625 C18.97661346 188.53015471 8.05261887 195.38087732 -2 204 C-2.61101562 204.47824219 -3.22203125 204.95648437 -3.8515625 205.44921875 C-9.41547118 209.88256151 -13.61849528 215.43605593 -18 221 C-19.3324941 222.66733771 -20.66556491 224.33421534 -22 226 C-22 225.01 -22 224.02 -22 223 C-23.03331703 223.02997826 -23.03331703 223.02997826 -24.08750916 223.06056213 C-30.65991486 223.24278625 -37.23159109 223.37885233 -43.80597591 223.46630955 C-47.18418716 223.51279124 -50.56026981 223.5755431 -53.93725586 223.67895508 C-70.31009882 224.14328223 -83.59363771 224.18583541 -97 214 C-97.61985779 213.53312775 -98.23971558 213.06625549 -98.87835693 212.5852356 C-109.70193084 204.30098557 -118.59906761 194.43624355 -126 183 C-126.58652344 182.12085938 -127.17304687 181.24171875 -127.77734375 180.3359375 C-135.17296622 168.58709305 -141 153.03312849 -141 139 C-129.78 139 -118.56 139 -107 139 C-107.07845422 130.93869948 -107.07845422 130.93869948 -107.18017578 122.87768555 C-107.31871936 94.35782043 -93.1231656 71.1454732 -74 51 C-73.54173828 50.50918945 -73.08347656 50.01837891 -72.61132812 49.51269531 C-52.10835955 27.66192203 -26.52576794 13.34572623 0 0 Z " transform="translate(173,488)" style="fill: #9738FD;"/><path d="M0 0 C15.35683387 3.11545553 31.39804749 14.85860796 44 24 C45.05058594 24.75925781 46.10117187 25.51851562 47.18359375 26.30078125 C50.1562281 28.49333576 53.08526564 30.73119015 56 33 C56.88945313 33.68320312 57.77890625 34.36640625 58.6953125 35.0703125 C80.12989059 52.00550394 96.42097991 72.93089236 105 99 C105.51433594 100.48306641 105.51433594 100.48306641 106.0390625 101.99609375 C109.40497206 113.58803463 108.18318817 126.09276919 108 138 C119.22 138 130.44 138 142 138 C139.24328591 162.81042677 127.91204574 183.00384877 111 201 C110.46117187 201.61488281 109.92234375 202.22976563 109.3671875 202.86328125 C100.34914654 212.71968281 87.2141619 219.02800478 75 224 C74.34 224 73.68 224 73 224 C73 223.34 73 222.68 73 222 C72.05945015 222.06209404 72.05945015 222.06209404 71.09989929 222.1254425 C64.5316705 222.54564248 57.96348321 222.87022148 51.38745117 223.14135742 C48.93927578 223.25459866 46.49207382 223.39161793 44.04663086 223.5534668 C22.56975571 224.94909181 22.56975571 224.94909181 17.01147461 220.22680664 C14.11292043 217.11484652 12.09311741 213.68697439 10 210 C-5.09895182 192.24056732 -29.09926343 180.8157574 -52 178 C-82.09974549 175.59166091 -108.96978507 182.27503355 -132.5234375 201.80078125 C-140.80578176 208.65058556 -140.80578176 208.65058556 -146.98095703 217.125 C-148.39860237 219.89327693 -149.39679359 221.24804854 -152 223 C-158.31991086 224.25834901 -164.99796483 223.41833722 -171.375 223 C-173.17820502 222.91160442 -174.98159647 222.82692831 -176.78515625 222.74609375 C-181.1934266 222.54040585 -185.59610429 222.28391787 -190 222 C-187.91069786 207.34299701 -174.75741101 194.44976856 -165 184 C-163.85917969 182.76056641 -163.85917969 182.76056641 -162.6953125 181.49609375 C-138.21183963 155.8486525 -103.06847116 142.56963958 -68.08935547 141.59594727 C-50.53807553 141.40200265 -33.67230346 144.6512064 -17 150 C-16.93941406 149.21496094 -16.87882813 148.42992187 -16.81640625 147.62109375 C-16.37179786 142.04638852 -15.87875357 136.52359384 -15 131 C-14.67 131 -14.34 131 -14 131 C-14 133.31 -14 135.62 -14 138 C-3.11 138 7.78 138 19 138 C19.85601086 126.39426562 19.85601086 126.39426562 20.16796875 114.8046875 C20.1721582 114.01244781 20.17634766 113.22020813 20.18066406 112.40396118 C20.19026883 109.8942543 20.1904826 107.38472186 20.1875 104.875 C20.18722809 104.01382568 20.18695618 103.15265137 20.18667603 102.26538086 C20.16075813 84.41894312 18.96639495 67.45213776 15 50 C14.70900842 48.6433635 14.41866438 47.28658798 14.12890625 45.9296875 C11.00498217 31.65290796 6.32379855 17.95738506 0.8828125 4.40625 C0 2 0 2 0 0 Z " transform="translate(687,489)" style="fill: #9738FD;"/><path d="M0 0 C0.99 0.495 0.99 0.495 2 1 C4.71477315 1.1225329 7.40557006 1.18570817 10.12158203 1.20532227 C11.38023071 1.22017166 11.38023071 1.22017166 12.66430664 1.23532104 C15.44544629 1.26697792 18.22660304 1.29171 21.0078125 1.31640625 C22.93309988 1.33697216 24.85838271 1.35796854 26.78366089 1.37937927 C31.85695718 1.43463741 36.93029447 1.48403017 42.00366211 1.53222656 C47.17825988 1.58241429 52.35279794 1.63811458 57.52734375 1.69335938 C67.68484485 1.8009867 77.84239774 1.9024215 88 2 C88.33 2.66 88.66 3.32 89 4 C88.19897461 5.91674805 88.19897461 5.91674805 86.90234375 8.26171875 C86.43344727 9.12539063 85.96455078 9.9890625 85.48144531 10.87890625 C84.97194336 11.80574219 84.46244141 12.73257812 83.9375 13.6875 C79.32846736 22.2949048 75.26298219 30.78416135 72 40 C71.57509277 41.18263428 71.57509277 41.18263428 71.14160156 42.38916016 C66.84706248 54.44091099 63.4547447 66.44770067 61 79 C60.79761719 79.96679688 60.59523437 80.93359375 60.38671875 81.9296875 C57.00062183 98.9377163 56.7378203 115.84812276 56.875 133.125 C56.88506029 135.35546468 56.8941807 137.58593381 56.90234375 139.81640625 C56.92236875 145.21114128 56.96155754 150.60524125 57 156 C45.78 156 34.56 156 23 156 C22.29165442 152.4582721 21.8717426 149.82679466 21.85473633 146.32763672 C21.84835648 145.42834442 21.84197662 144.52905212 21.83540344 143.60250854 C21.83429062 142.6379776 21.8331778 141.67344666 21.83203125 140.6796875 C21.82703865 139.15977707 21.82703865 139.15977707 21.82194519 137.60916138 C21.81688482 135.45900932 21.81453659 133.30884941 21.81469727 131.15869141 C21.8125402 127.93508097 21.79445755 124.71182982 21.77539062 121.48828125 C21.74049968 108.86263039 22.28334902 96.51229239 24 84 C24.21112427 82.45046631 24.21112427 82.45046631 24.42651367 80.86962891 C24.80184237 78.36052548 25.22461299 75.86931996 25.6875 73.375 C25.85338623 72.4780542 26.01927246 71.5811084 26.19018555 70.65698242 C29.70114788 52.58973484 35.28955438 35.11265614 42 18 C16.66504134 29.99860349 -6.77610805 44.48224953 -27 64 C-27.92296875 64.85980469 -28.8459375 65.71960938 -29.796875 66.60546875 C-51.81634506 87.66080947 -63.54648043 113.18597361 -64.5625 143.5 C-64.62727539 145.30597656 -64.62727539 145.30597656 -64.69335938 147.1484375 C-64.79873168 150.09886193 -64.90085903 153.04936071 -65 156 C-69.82380802 156.0246519 -74.64757967 156.04283693 -79.47143555 156.05493164 C-81.11369464 156.05997174 -82.75594923 156.06680378 -84.39819336 156.07543945 C-86.75375479 156.08751926 -89.10925709 156.09323139 -91.46484375 156.09765625 C-92.20339096 156.10281754 -92.94193817 156.10797882 -93.7028656 156.11329651 C-95.46898088 156.1134925 -97.23497146 156.06194719 -99 156 C-101.74391109 153.25608891 -100.23550928 144.99857691 -100.25 141.3125 C-100.270625 140.05115234 -100.29125 138.78980469 -100.3125 137.49023438 C-100.36144247 125.54215464 -98.14192037 114.41368657 -94.3125 103.125 C-94.05831299 102.37379883 -93.80412598 101.62259766 -93.54223633 100.84863281 C-85.9884327 79.31543144 -72.63114585 58.61521613 -56 43 C-55.195625 42.195625 -54.39125 41.39125 -53.5625 40.5625 C-52.716875 39.716875 -51.87125 38.87125 -51 38 C-50.43667969 37.39027344 -49.87335938 36.78054688 -49.29296875 36.15234375 C-37.92993637 24.18096546 -23.8608001 14.83900699 -10 6 C-8.47246094 5.01773437 -8.47246094 5.01773437 -6.9140625 4.015625 C-1.90231019 0.88507485 -1.90231019 0.88507485 0 0 Z " transform="translate(131,471)" style="fill: #7F43FD;"/><path d="M0 0 C16.41482213 8.73521885 31.05335487 19.75706436 45 32 C45.721875 32.61101562 46.44375 33.22203125 47.1875 33.8515625 C57.44890788 42.58203453 66.1659517 52.0829942 74 63 C74.41636719 63.57202148 74.83273437 64.14404297 75.26171875 64.73339844 C93.71923875 90.30416268 103.45087376 120.35773438 101 152 C100.67 153.32 100.34 154.64 100 156 C88.78 156 77.56 156 66 156 C65.896875 151.978125 65.79375 147.95625 65.6875 143.8125 C65.36071921 134.51071354 64.96307534 125.87760612 62 117 C61.59910156 115.74703125 61.19820312 114.4940625 60.78515625 113.203125 C51.05999209 84.36202212 29.29731021 62.33642826 5 45 C4.36449219 44.54641113 3.72898437 44.09282227 3.07421875 43.62548828 C-11.09605334 33.62798842 -26.42287219 25.56317138 -42 18 C-41.443125 19.175625 -40.88625 20.35125 -40.3125 21.5625 C-37.68429006 27.50133228 -35.65991999 33.62145783 -33.69726562 39.8046875 C-33.21623526 41.31919206 -32.73025146 42.83212917 -32.24023438 44.34375 C-28.64650474 55.4727192 -25.92089469 66.40165153 -24.28808594 77.98388672 C-23.8577179 80.99573356 -23.35977532 83.99650074 -22.875 87 C-22.55892115 88.99628746 -22.27001734 90.99696229 -22 93 C-21.86537354 93.94866943 -21.86537354 93.94866943 -21.72802734 94.91650391 C-20.71862599 103.16921159 -20.84937736 111.45779386 -20.86962891 119.7578125 C-20.8749734 122.36203879 -20.86966655 124.96609155 -20.86328125 127.5703125 C-20.85234483 151.70468966 -20.85234483 151.70468966 -23 156 C-33.89 156 -44.78 156 -56 156 C-55.97679687 153.07898438 -55.95359375 150.15796875 -55.9296875 147.1484375 C-55.40692978 118.49055534 -55.40692978 118.49055534 -58 90 C-58.495 89.505 -58.495 89.505 -59 89 C-59.29646539 86.941805 -59.58696992 84.88258121 -59.84790039 82.81958008 C-63.25335361 56.42548148 -73.64942216 31.41760833 -86 8 C-86.99 6.02 -87.98 4.04 -89 2 C-59.63 2 -30.26 2 0 2 C0 1.34 0 0.68 0 0 Z " transform="translate(729,471)" style="fill: #7F43FD;"/><path d="M0 0 C1 2 1 2 0.49023438 3.72631836 C0.04647461 4.77251343 0.04647461 4.77251343 -0.40625 5.83984375 C-0.73463867 6.64123779 -1.06302734 7.44263184 -1.40136719 8.26831055 C-1.76391602 9.14914307 -2.12646484 10.02997559 -2.5 10.9375 C-13.11070092 37.86461193 -18.99767377 67.51743276 -19.23828125 96.4921875 C-19.24784851 97.46874802 -19.25741577 98.44530853 -19.26727295 99.45146179 C-19.29175175 102.59267413 -19.30438435 105.73370438 -19.3125 108.875 C-19.31611542 109.94370331 -19.31973083 111.01240662 -19.32345581 112.11349487 C-19.34734897 129.68056774 -18.63511352 146.94819504 -14.48974609 164.11279297 C-14.08984375 165.96484375 -14.08984375 165.96484375 -14 169 C-15.78125 171.125 -15.78125 171.125 -18.5 173 C-23.77616069 176.92992381 -28.38629532 181.18492436 -33 185.875 C-33.64646484 186.52984375 -34.29292969 187.1846875 -34.95898438 187.859375 C-36.12709833 189.04595229 -37.29337592 190.23434287 -38.45703125 191.42529297 C-38.96621094 191.94494629 -39.47539062 192.46459961 -40 193 C-40.4964502 193.56154785 -40.99290039 194.1230957 -41.50439453 194.70166016 C-43 196 -43 196 -46.1171875 196.03125 C-59.33729542 194.16229503 -70.43463798 190.46640028 -81 182 C-82.17369141 181.071875 -82.17369141 181.071875 -83.37109375 180.125 C-95.98312837 169.57597947 -104.11211765 154.08788064 -107 138 C-107.3585198 133.80000933 -107.37763064 129.65014993 -107.3125 125.4375 C-107.31572266 124.39142578 -107.31894531 123.34535156 -107.32226562 122.26757812 C-107.12950469 94.03686299 -92.92919404 70.94113209 -74 51 C-73.54173828 50.50918945 -73.08347656 50.01837891 -72.61132812 49.51269531 C-52.10835955 27.66192203 -26.52576794 13.34572623 0 0 Z " transform="translate(173,488)" style="fill: #F6F5F7;"/><path d="M0 0 C15.35683387 3.11545553 31.39804749 14.85860796 44 24 C45.05058594 24.75925781 46.10117187 25.51851562 47.18359375 26.30078125 C50.1562281 28.49333576 53.08526564 30.73119015 56 33 C56.88945313 33.68320312 57.77890625 34.36640625 58.6953125 35.0703125 C80.10084508 51.98255544 96.48191055 72.93437715 105 99 C105.34289062 100.02351562 105.68578125 101.04703125 106.0390625 102.1015625 C111.47349157 121.35061499 108.94051951 143.15943369 99.41821289 160.61889648 C95.52023012 167.25901846 90.4808422 172.64410101 85 178 C84.44054687 178.59167969 83.88109375 179.18335938 83.3046875 179.79296875 C74.36212825 188.52483944 59.76625287 194.33725213 47.42578125 195.44140625 C43.08489396 195.38320751 40.91789364 194.04944144 37.91357422 190.9987793 C35.93371923 188.6531456 34.10659164 186.22279711 32.31884766 183.72851562 C30.36196993 181.1637814 28.05155014 179.11379479 25.625 177 C24.42810547 175.93458984 24.42810547 175.93458984 23.20703125 174.84765625 C21.08498227 173.01451689 21.08498227 173.01451689 19.01171875 171.62109375 C17.3125 170.4375 17.3125 170.4375 15 168 C15.20359008 165.25913061 15.53754586 162.69892665 16 160 C16.24234589 158.3845266 16.48182799 156.76862152 16.71875 155.15234375 C17.10540541 152.56487699 17.49373751 149.97789615 17.89453125 147.39257812 C19.98567134 133.25097923 20.20453837 119.07654418 20.1875 104.8125 C20.18722809 103.95382324 20.18695618 103.09514648 20.18667603 102.21044922 C20.16072582 84.38327843 18.96209747 67.43322886 15 50 C14.70900842 48.6433635 14.41866438 47.28658798 14.12890625 45.9296875 C11.00498217 31.65290796 6.32379855 17.95738506 0.8828125 4.40625 C0 2 0 2 0 0 Z " transform="translate(687,489)" style="fill: #F6F5F7;"/><path d="M0 0 C0.81355957 0.26731934 1.62711914 0.53463867 2.46533203 0.81005859 C23.78665911 8.02344215 43.16095739 19.2942979 59.55078125 34.703125 C61.67059844 36.69108754 63.8364453 38.57134636 66.0625 40.4375 C78.2770957 51.13768445 88.08874331 64.52309924 96.125 78.5625 C96.50342041 79.21694092 96.88184082 79.87138184 97.27172852 80.5456543 C99.39989228 84.393196 100.38522095 87.67716855 101 92 C95.75360141 92.32352089 90.51308764 92.55812634 85.2590332 92.71411133 C83.47642886 92.77915339 81.69450944 92.86763464 79.91430664 92.98071289 C65.52266832 93.87137435 65.52266832 93.87137435 61.35778809 90.7817688 C58.13762767 87.29447857 56.13324451 83.20434957 54 79 C34.91463768 53.47214024 4.84462208 36.04657196 -26.27734375 30.6015625 C-55.52396253 26.57130218 -84.22222986 35.04165104 -108 52 C-111.77339083 54.88267626 -115.40478998 57.89874943 -119 61 C-119.93070312 61.79535156 -120.86140625 62.59070313 -121.8203125 63.41015625 C-128.77844163 69.52516946 -136.24323615 76.35865242 -140.36376953 84.79077148 C-142.29266259 88.27254906 -143.87249713 90.51015114 -147 93 C-153.29041799 94.70049901 -160.09461658 93.70521952 -166.5 93.1875 C-168.29397886 93.08400122 -170.08826208 92.98564221 -171.8828125 92.89257812 C-176.26096925 92.65435307 -180.6291227 92.34635584 -185 92 C-184.18907916 87.27283831 -182.36471218 83.56834426 -180 79.4375 C-179.59845703 78.73149658 -179.19691406 78.02549316 -178.78320312 77.2980957 C-175.00439684 70.78613955 -170.70788135 64.88072197 -166 59 C-165.32710938 58.1234375 -164.65421875 57.246875 -163.9609375 56.34375 C-137.69266089 22.89351012 -99.94382908 0.23124906 -57.74267578 -5.57666016 C-37.86023037 -7.8255943 -18.9618328 -6.29256607 0 0 Z " transform="translate(472,307)" style="fill: #5854FD;"/><path d="M0 0 C17.41099708 13.66432682 29.06288434 31.7599678 31.90234375 53.8671875 C32.90960465 74.73857038 28.05375338 95.81511193 14.40234375 112.1328125 C9.1132816 117.91772422 3.51399415 123.39740466 -2.09765625 128.8671875 C-4.31603088 126.80822888 -5.79015149 124.87603545 -7.19140625 122.19921875 C-7.76882568 121.11833984 -7.76882568 121.11833984 -8.35791016 120.015625 C-8.76702637 119.24476563 -9.17614258 118.47390625 -9.59765625 117.6796875 C-18.41370438 101.45632431 -29.21246649 87.02263667 -41.7265625 73.4609375 C-43.73851057 71.26005856 -45.67590153 69.02116251 -47.59765625 66.7421875 C-51.71318191 62.02087185 -56.35400049 57.94420524 -61.09765625 53.8671875 C-61.9071875 53.16980469 -62.71671875 52.47242188 -63.55078125 51.75390625 C-78.66703588 39.07201778 -94.97218978 28.616309 -112.09765625 18.8671875 C-83.22138371 -15.13822466 -38.67915839 -26.63155168 0 0 Z " transform="translate(668.09765625,90.1328125)" style="fill: #F5F6F7;"/><path d="M0 0 C5.58800348 4.58410191 10.64020295 9.70648215 15.61035156 14.94555664 C12.40042976 17.50261299 9.02260925 19.42070339 5.42285156 21.38305664 C-3.29704758 26.26596825 -11.3592523 32.01281015 -19.38964844 37.94555664 C-20.31028076 38.62424805 -20.31028076 38.62424805 -21.24951172 39.31665039 C-52.02948056 62.22109312 -76.00323589 91.84614894 -93.38964844 125.94555664 C-97.15625104 124.69002244 -98.66783622 122.81767789 -101.38964844 119.94555664 C-102.59234375 118.68678711 -102.59234375 118.68678711 -103.81933594 117.40258789 C-120.50968297 99.35248415 -129.64873795 80.00885099 -128.70996094 55.20336914 C-128.03655031 44.43364373 -125.08397753 34.61871962 -120.38964844 24.94555664 C-119.93203125 23.98133789 -119.47441406 23.01711914 -119.00292969 22.02368164 C-109.37077059 3.68133333 -92.12609896 -8.2683309 -72.98339844 -14.96069336 C-47.72739865 -22.64730199 -20.33087679 -16.00977868 0 0 Z " transform="translate(289.3896484375,93.054443359375)" style="fill: #F5F6F7;"/><path d="M0 0 C0.7528125 0.83660156 1.505625 1.67320312 2.28125 2.53515625 C3.76170822 4.22152327 5.2408735 5.90902623 6.71875 7.59765625 C8.99650121 9.99631548 11.38530979 11.98095111 14 14 C15.0173873 14.98230498 16.02596117 15.97469597 17 17 C17.26304932 16.17121338 17.52609863 15.34242676 17.79711914 14.48852539 C22.74068943 0.15146919 22.74068943 0.15146919 28 -4 C34.98603968 -6.46160625 42.80884946 -5.40492743 50.0625 -4.9375 C52.09285275 -4.86218177 54.12347351 -4.79375382 56.15429688 -4.73242188 C61.10952214 -4.56781661 66.0518039 -4.30959964 71 -4 C67.97106154 0.57957689 64.9379793 5.13613671 61.6875 9.5625 C47.54501997 29.82820764 38.28906407 53.23821047 32.375 77.125 C32.18067383 77.89263672 31.98634766 78.66027344 31.78613281 79.45117188 C27.93822216 95.71823049 26.49728951 112.03074821 26.60888672 128.71166992 C26.62501654 131.56542561 26.60889293 134.41777002 26.58984375 137.27148438 C26.57012885 154.44224259 28.94972179 170.76930182 33.1328125 187.3984375 C33.89606001 190.56832132 34.46398089 193.78388531 35 197 C23.45 197 11.9 197 0 197 C-3.29697735 188.4278589 -5.9829856 181.34274958 -7.3125 172.5 C-7.47709717 171.41831543 -7.64169434 170.33663086 -7.8112793 169.22216797 C-9.94920635 153.249354 -9.41129007 137.07248356 -9 121 C-8.97244629 119.88077148 -8.94489258 118.76154297 -8.91650391 117.60839844 C-8.83933259 114.90427967 -8.7427763 112.20262759 -8.625 109.5 C-8.579198 108.44643311 -8.579198 108.44643311 -8.5324707 107.37158203 C-7.86677546 95.9710363 -5.41154548 84.80565573 -2.9375 73.6875 C-2.40163674 71.27547282 -1.86899463 68.86272738 -1.33984375 66.44921875 C-1.10644287 65.40080811 -0.87304199 64.35239746 -0.63256836 63.2722168 C-0.31944702 61.65246948 -0.31944702 61.65246948 0 60 C0.15819717 59.3461734 0.31639435 58.6923468 0.47938538 58.01870728 C1.01292847 55.65733256 1.01292847 55.65733256 1 52 C-0.62254934 49.59651797 -1.84022564 48.17861106 -3.94921875 46.3125 C-4.47353989 45.81212219 -4.99786102 45.31174438 -5.53807068 44.79620361 C-6.65801572 43.72989597 -7.78736523 42.67339327 -8.92510986 41.62609863 C-11.87716276 38.90233783 -14.75093371 36.0984729 -17.62890625 33.296875 C-18.475065 32.47712189 -18.475065 32.47712189 -19.33831787 31.64080811 C-29.22478054 21.98705391 -37.33846504 10.63877874 -43 -2 C-43 -2.66 -43 -3.32 -43 -4 C-37.68072992 -4.26704922 -32.36144996 -4.50004152 -27.03930664 -4.7019043 C-25.22998629 -4.77528796 -23.42101475 -4.85788441 -21.61254883 -4.94995117 C-19.00900136 -5.08087977 -16.40598691 -5.17835635 -13.80078125 -5.26953125 C-12.99538406 -5.31721146 -12.18998688 -5.36489166 -11.36018372 -5.41401672 C-5.797329 -5.56324311 -3.59982508 -4.54440642 0 0 Z " transform="translate(179,202)" style="fill: #4B5AFD;"/><path d="M0 0 C0.495 0.99 0.495 0.99 1 2 C13.54 2 26.08 2 39 2 C33.95497947 13.35129619 27.88184762 22.47677792 20 32 C19.33097656 32.85980469 18.66195312 33.71960938 17.97265625 34.60546875 C16.2749615 36.66623486 14.68028781 38.25885996 12.625 39.9375 C11.08147952 41.28955325 9.54019596 42.64416083 8 44 C7.12504883 44.74564209 7.12504883 44.74564209 6.23242188 45.50634766 C-2.01088609 52.04121499 -2.01088609 52.04121499 -6.55859375 61 C-6.0302647 63.92869017 -5.1602932 66.2568148 -4 69 C7.0053279 101.50257286 8.18624835 141.32540135 3 175 C2.855625 175.96808594 2.71125 176.93617188 2.5625 177.93359375 C1.1568276 186.38017882 -1.04059094 194.6725115 -3 203 C-14.88 203 -26.76 203 -39 203 C-37.87999497 195.15996482 -37.87999497 195.15996482 -36.87890625 191.50390625 C-31.19670646 170.20589232 -30.62076146 149.88236229 -31 128 C-31.01401855 127.10539062 -31.02803711 126.21078125 -31.04248047 125.2890625 C-31.44792097 105.96167187 -34.99474774 86.35670012 -41 68 C-41.27295898 67.15405273 -41.54591797 66.30810547 -41.82714844 65.43652344 C-48.57497992 44.86495763 -58.31581795 26.58085912 -70.73242188 8.88671875 C-72.24172372 6.64020784 -73.62283686 4.32935017 -75 2 C-69.16763044 1.53370068 -63.33852131 1.15639259 -57.49511719 0.85864258 C-55.51117775 0.74527923 -53.52844029 0.6081972 -51.54785156 0.4465332 C-35.52273569 -0.83789191 -35.52273569 -0.83789191 -31.3269043 2.21890259 C-28.2312239 5.68662543 -26.62448797 9.66717799 -25 14 C-24.1834386 15.61276862 -23.35320116 17.21881154 -22.5 18.8125 C-22.005 19.864375 -21.51 20.91625 -21 22 C-13.23272213 15.58355306 -5.09699954 8.8039083 0 0 Z " transform="translate(686,196)" style="fill: #4A5AFD;"/><path d="M0 0 C12.12232271 8.64325471 20.65917676 19.64629673 26.68603516 33.20214844 C27.01732422 33.92917969 27.34861328 34.65621094 27.68994141 35.40527344 C30.70171698 43.02928504 30.14221192 49.50097669 30.68603516 58.20214844 C19.13603516 58.20214844 7.58603516 58.20214844 -4.31396484 58.20214844 C-5.30396484 52.75714844 -5.30396484 52.75714844 -6.31396484 47.20214844 C-9.92635179 38.11644793 -14.63202421 32.15819603 -23.39990234 27.59667969 C-32.63526818 23.68097232 -40.41554521 22.70216501 -50.00146484 25.82714844 C-59.08767764 29.52893884 -65.90594202 35.35947762 -70.31396484 44.20996094 C-72.27926867 49.02873474 -72.63056961 52.73498653 -73.31396484 58.20214844 C-84.86396484 58.20214844 -96.41396484 58.20214844 -108.31396484 58.20214844 C-108.31396484 40.49560498 -103.05440323 25.57669495 -91.31396484 12.20214844 C-90.74291016 11.53699219 -90.17185547 10.87183594 -89.58349609 10.18652344 C-66.73944281 -14.55714195 -27.75333583 -18.41761812 0 0 Z " transform="translate(660.31396484375,711.7978515625)" style="fill: #B22DFD;"/><path d="M0 0 C14.64293923 11.3619487 22.89822445 25.1382376 27.19921875 43.00390625 C27.49892578 44.19886719 27.49892578 44.19886719 27.8046875 45.41796875 C28.33725696 48.90867157 28.19921875 52.47281061 28.19921875 56.00390625 C16.64921875 56.00390625 5.09921875 56.00390625 -6.80078125 56.00390625 C-7.79078125 51.71390625 -8.78078125 47.42390625 -9.80078125 43.00390625 C-15.34102057 31.79458483 -21.93919532 27.07312847 -33.640625 22.921875 C-42.41270877 20.37374189 -50.54132496 22.30519342 -58.80078125 26.00390625 C-66.67242984 31.11831529 -71.84557274 38.10556622 -74.80078125 47.00390625 C-75.13078125 49.97390625 -75.46078125 52.94390625 -75.80078125 56.00390625 C-87.35078125 56.00390625 -98.90078125 56.00390625 -110.80078125 56.00390625 C-110.80078125 36.65181639 -105.0838725 21.49010158 -91.484375 7.65625 C-90.59878906 6.78097656 -89.71320313 5.90570312 -88.80078125 5.00390625 C-88.13175781 4.32457031 -87.46273437 3.64523437 -86.7734375 2.9453125 C-63.1195227 -19.50840366 -25.42922516 -18.12319952 0 0 Z " transform="translate(280.80078125,713.99609375)" style="fill: #B22DFD;"/><path d="M0 0 C1.28519531 -0.00773437 2.57039063 -0.01546875 3.89453125 -0.0234375 C20.04247854 0.00935021 38.64399522 2.45027328 50.6875 14.4375 C53.39713704 17.98438444 54.06710831 20.95572003 53.7578125 25.38671875 C51.12091142 37.31788226 43.60993808 45.96296135 35.125 54.25 C34.46757812 54.92804688 33.81015625 55.60609375 33.1328125 56.3046875 C24.08643253 65.04046214 12.62106887 69.5268778 0.2265625 69.40625 C-15.12602705 68.6328198 -27.41566909 59.95257116 -37.875 49.25 C-44.05754088 41.91892386 -50.31033949 32.29900681 -51.21484375 22.609375 C-50.66948925 17.21851446 -47.83012562 14.72486037 -43.875 11.25 C-30.64294475 1.58711755 -15.97829889 -0.09558304 0 0 Z " transform="translate(428.875,370.75)" style="fill: #92BDFE;"/><path d="M0 0 C6.60965607 5.16182664 10.84266809 12.52419822 12.5703125 20.72265625 C13.99145306 32.48220393 13.0720909 44.70448467 6.30078125 54.7265625 C1.57334957 60.54362 -2.7302672 63.97334722 -10.21875 65.1640625 C-16.88808944 65.53673805 -21.76130908 64.78547706 -27.07421875 60.625 C-36.15795833 51.71867721 -39.31857415 42.22315332 -39.57421875 29.7890625 C-39.51603949 18.26838125 -35.97554686 9.99070201 -28.13671875 1.50390625 C-19.59877352 -6.11232898 -9.42525994 -6.0705064 0 0 Z " transform="translate(539.07421875,253.3359375)" style="fill: #AEB7FE;"/><path d="M0 0 C8.59244331 6.84122153 12.04100213 15.72396244 13.32421875 26.5859375 C13.69354024 37.10523226 11.36670378 47.46352881 4.515625 55.6640625 C0.33312859 60.03290776 -3.83756969 63.90725082 -10.015625 64.68359375 C-17.40797123 64.83249172 -22.55531289 64.49216717 -28.0625 59.3125 C-36.4308137 50.72034251 -39.4269369 41.60993629 -39.5625 29.8125 C-39.40179039 17.84429226 -36.64049427 10.25692517 -28.37890625 1.40625 C-19.73889105 -6.4032747 -9.51987288 -6.68530399 0 0 Z " transform="translate(348.0625,253.6875)" style="fill: #AEB7FE;"/><path d="M0 0 C4.3611068 5.17012371 5.88922616 11.68070795 8 18 C8.37640625 19.10601562 8.7528125 20.21203125 9.140625 21.3515625 C14.88844294 38.98106379 15.61716949 57.6798136 13 76 C1.78 76 -9.44 76 -21 76 C-21.103125 71.565625 -21.20625 67.13125 -21.3125 62.5625 C-22.05018007 39.63453707 -26.72012662 22.55974675 -37 2 C-24.79 2 -12.58 2 0 2 C0 1.34 0 0.68 0 0 Z " transform="translate(573,397)" style="fill: #6A4CFD;"/><path d="M0 0 C32.01 0 64.02 0 97 0 C92.48691286 13.53926141 80.25645765 24.90407574 67.87109375 31.59375 C57.13098553 36.85421117 46.51452431 37.55496964 35 34 C21.42912185 29.1532578 9.0248114 18.552859 2 6 C1.34 4.02 0.68 2.04 0 0 Z " transform="translate(382,404)" style="fill: #C2B2FD;"/><path d="M0 0 C6.02182921 4.74621272 10.2028955 10.76767553 11.9375 18.3125 C11.9375 20.2925 11.9375 22.2725 11.9375 24.3125 C-4.5625 24.6425 -21.0625 24.9725 -38.0625 25.3125 C-38.0625 14.47982152 -35.75275892 9.42051223 -28.4140625 1.4765625 C-19.82172086 -6.43067549 -9.52553529 -6.6892804 0 0 Z " transform="translate(348.0625,253.6875)" style="fill: #83C2FD;"/><path d="M0 0 C5.90243382 4.60951975 9.54420037 10.59148897 11.92578125 17.6640625 C11.92578125 19.9740625 11.92578125 22.2840625 11.92578125 24.6640625 C-4.57421875 24.9940625 -21.07421875 25.3240625 -38.07421875 25.6640625 C-37.01866245 14.05294315 -35.42437897 8.4212171 -27.07421875 0.6640625 C-18.55392208 -6.20714449 -8.95312673 -5.7664206 0 0 Z " transform="translate(539.07421875,253.3359375)" style="fill: #83C2FD;"/><path d="M0 0 C32.01 0 64.02 0 97 0 C95 6 95 6 93 9 C90.12915505 9.2861598 87.47495711 9.37812186 84.60302734 9.34057617 C83.73466751 9.34101425 82.86630768 9.34145233 81.97163391 9.34190369 C79.09284206 9.33980867 76.21462798 9.3164442 73.3359375 9.29296875 C71.3433972 9.28737533 69.35085278 9.28310403 67.35830688 9.28010559 C62.10730653 9.26863684 56.85655408 9.23915221 51.60565186 9.20599365 C46.25015619 9.17533647 40.89462057 9.16160957 35.5390625 9.14648438 C25.02593259 9.11428445 14.51298689 9.06306362 4 9 C0 2.25 0 2.25 0 0 Z " transform="translate(382,404)" style="fill: #ADB7FD;"/><path d="M0 0 C15.84 0 31.68 0 48 0 C45.02558759 8.92323724 41.32560453 15.39675705 32.84375 19.95703125 C26.73279695 22.19827364 20.51445356 22.37175343 14.41796875 19.9921875 C8.44975764 16.43362892 4.2431762 11.09060769 1 5 C0.67 3.35 0.34 1.7 0 0 Z " transform="translate(502,297)" style="fill: #D1AFFD;"/><path d="M0 0 C0.495 0.99 0.495 0.99 1 2 C-1.87345064 10.18634114 -6.75080632 15.86369038 -13.625 20.9375 C-19.6633737 22.8384695 -26.31286837 23.25532278 -32.375 21.19140625 C-40.4092135 16.65646934 -44.53532867 9.62634965 -47 1 C-31.49 0.67 -15.98 0.34 0 0 Z " transform="translate(358,296)" style="fill: #D2AFFD;"/><path d="M0 0 C1.28519531 -0.00773437 2.57039063 -0.01546875 3.89453125 -0.0234375 C13.87736648 -0.00316778 23.73363427 0.58507679 33.125 4.25 C33.99125 4.58 34.8575 4.91 35.75 5.25 C37.9276258 6.16689508 40.0280655 7.16270063 42.125 8.25 C42.125 8.91 42.125 9.57 42.125 10.25 C15.395 10.25 -11.335 10.25 -38.875 10.25 C-37.875 7.25 -37.875 7.25 -35.28515625 5.93359375 C-34.18042969 5.52238281 -33.07570313 5.11117188 -31.9375 4.6875 C-30.85597656 4.27371094 -29.77445312 3.85992187 -28.66015625 3.43359375 C-19.04520632 0.42706142 -10.05649319 -0.06015848 0 0 Z " transform="translate(428.875,370.75)" style="fill: #7AC4FD;"/><path d="M0 0 C18.81 0 37.62 0 57 0 C53.16844157 3.06524674 50.23199252 5.0755435 45.9375 7.1875 C44.91527344 7.69667969 43.89304687 8.20585937 42.83984375 8.73046875 C32.8358619 13.20267522 21.42345956 11.36653773 11.4375 7.6875 C7.45394604 5.73193715 3.60290749 3.60157995 0 1 C0 0.67 0 0.34 0 0 Z " transform="translate(402,429)" style="fill: #D9AEFD;"/><path d="M0 0 C0.33 0.66 0.66 1.32 1 2 C16.51 1.67 32.02 1.34 48 1 C48.495 5.455 48.495 5.455 49 10 C32.5 10.33 16 10.66 -1 11 C-1 3.125 -1 3.125 0 0 Z " transform="translate(311,268)" style="fill: #98BCFD;"/><path d="M0 0 C0.33 0.66 0.66 1.32 1 2 C16.51 1.67 32.02 1.34 48 1 C49 3 49 3 49 10 C32.5 10.33 16 10.66 -1 11 C-0.67 7.37 -0.34 3.74 0 0 Z " transform="translate(502,268)" style="fill: #98BCFD;"/><path d="M0 0 C15.84 0 31.68 0 48 0 C47.67 1.65 47.34 3.3 47 5 C31.82 4.67 16.64 4.34 1 4 C0.67 2.68 0.34 1.36 0 0 Z " transform="translate(502,297)" style="fill: #C3B2FD;"/><path d="M0 0 C0.495 0.99 0.495 0.99 1 2 C0.11987305 3.98925781 0.11987305 3.98925781 -2 6 C-5.30773297 6.53348719 -8.58040471 6.32173271 -11.91796875 6.171875 C-12.89034988 6.14401917 -13.86273102 6.11616333 -14.86457825 6.08746338 C-17.97316736 5.9940236 -21.07992761 5.87235482 -24.1875 5.75 C-26.29356033 5.68173382 -28.39968106 5.61530456 -30.50585938 5.55078125 C-35.67151548 5.38850199 -40.83570747 5.20089853 -46 5 C-46.33 3.68 -46.66 2.36 -47 1 C-31.49 0.67 -15.98 0.34 0 0 Z " transform="translate(358,296)" style="fill: #C3B2FD;"/><path d="M0 0 C6.93 0 13.86 0 21 0 C16.67616127 3.24287904 15.65166128 3.41044721 10.5 3.375 C8.81390625 3.38660156 8.81390625 3.38660156 7.09375 3.3984375 C4 3 4 3 0 0 Z " transform="translate(515,315)" style="fill: #E2AFFD;"/></svg>