<svg version="1.1" viewBox="0.0 0.0 960.0 540.0" fill="none" stroke="none" stroke-linecap="square" stroke-miterlimit="10" xmlns:xlink="http://www.w3.org/1999/xlink" xmlns="http://www.w3.org/2000/svg"><clipPath id="p.0"><path d="m0 0l960.0 0l0 540.0l-960.0 0l0 -540.0z" clip-rule="nonzero"/></clipPath><g clip-path="url(#p.0)"><path fill="#ffffff" d="m0 0l960.0 0l0 540.0l-960.0 0z" fill-rule="evenodd"/><path fill="#fafafa" d="m253.11023 270.0l0 0c0 -128.46056 104.13788 -232.59842 232.59842 -232.59842l0 0c61.688934 0 120.85129 24.505836 164.47195 68.1265c43.620667 43.620667 68.126465 102.78299 68.126465 164.47192l0 0c0 128.46057 -104.13782 232.59842 -232.59842 232.59842l0 0c-128.46054 0 -232.59842 -104.13785 -232.59842 -232.59842z" fill-rule="evenodd"/><defs><linearGradient id="p.1" gradientUnits="userSpaceOnUse" gradientTransform="matrix(11.18828489970093 0.0 0.0 11.18828489970093 0.0 0.0)" spreadMethod="pad" x1="32.63206738752778" y1="18.412037244402374" x2="32.63202706718471" y2="29.600322144030653"><stop offset="0.0" stop-color="#3d85c6"/><stop offset="0.5" stop-color="#674ea7"/><stop offset="1.0" stop-color="#c27ba0"/></linearGradient></defs><path fill="url(#p.1)" d="m434.65573 221.19235c5.00589 0 9.293915 1.0186462 12.864014 3.0559387c3.589508 2.0178833 6.393219 4.734268 8.411102 8.149155c2.0372925 3.3954773 3.0559082 7.2954407 3.0559082 11.69986c0 5.1223297 -1.2514648 9.8663025 -3.754425 14.231918c-2.5029602 4.346222 -6.1409607 7.7998962 -10.914032 10.361053c-4.7730713 2.5611877 -10.729736 3.8417664 -17.869934 3.8417664l-34.69214 0l7.858124 -51.33969zm-49.88449 -15.192352l-19.674377 125.17685l17.34607 0l6.810364 -43.452454l33.236908 0c1.0865479 0 2.192505 -0.02911377 3.317871 -0.08731079c1.1253357 -0.05822754 2.2312927 -0.14553833 3.317871 -0.26193237l10.01181 30.559326c1.435791 4.1716003 3.5506897 7.4215393 6.344696 9.749878c2.7940063 2.3283386 6.936493 3.4924927 12.42746 3.4924927l11.612549 0l2.5029602 -15.192352l-9.109589 0c-2.153717 0 -3.8320618 -0.53356934 -5.035034 -1.6007385c-1.1835632 -1.0865479 -2.1245728 -2.6387634 -2.8230896 -4.6566467l-8.23645 -25.58252c6.907379 -2.5029602 12.505066 -5.9275513 16.79306 -10.273773c4.3074036 -4.346222 7.499176 -9.235687 9.575256 -14.668488c2.09552 -5.4327545 3.1432495 -10.943146 3.1432495 -16.531128c0 -6.6745453 -1.5231018 -12.786407 -4.569336 -18.335602c-3.0462341 -5.549179 -7.4312744 -9.992416 -13.15506 -13.329697c-5.7044067 -3.337265 -12.611816 -5.005905 -20.722137 -5.005905z" fill-rule="evenodd"/><defs><linearGradient id="p.2" gradientUnits="userSpaceOnUse" gradientTransform="matrix(11.18828489970093 0.0 0.0 11.18828489970093 0.0 0.0)" spreadMethod="pad" x1="32.63206738752778" y1="18.412037244402374" x2="32.63202706718471" y2="29.600322144030653"><stop offset="0.0" stop-color="#3d85c6"/><stop offset="0.5" stop-color="#674ea7"/><stop offset="1.0" stop-color="#c27ba0"/></linearGradient></defs><path fill="url(#p.2)" d="m506.00827 206.0l-19.674408 125.17685l17.171448 0l8.760315 -56.141846l65.979065 0l-8.760315 56.141846l17.171448 0l19.674377 -125.17685l-17.171448 0l-8.411072 53.84262l-65.979065 0l8.411072 -53.84262z" fill-rule="evenodd"/><path stroke="#595959" stroke-width="1.0" stroke-linejoin="round" stroke-linecap="butt" d="m434.65573 221.19235c5.00589 0 9.293915 1.0186462 12.864014 3.0559387c3.589508 2.0178833 6.393219 4.734268 8.411102 8.149155c2.0372925 3.3954773 3.0559082 7.2954407 3.0559082 11.69986c0 5.1223297 -1.2514648 9.8663025 -3.754425 14.231918c-2.5029602 4.346222 -6.1409607 7.7998962 -10.914032 10.361053c-4.7730713 2.5611877 -10.729736 3.8417664 -17.869934 3.8417664l-34.69214 0l7.858124 -51.33969zm-49.88449 -15.192352l-19.674377 125.17685l17.34607 0l6.810364 -43.452454l33.236908 0c1.0865479 0 2.192505 -0.02911377 3.317871 -0.08731079c1.1253357 -0.05822754 2.2312927 -0.14553833 3.317871 -0.26193237l10.01181 30.559326c1.435791 4.1716003 3.5506897 7.4215393 6.344696 9.749878c2.7940063 2.3283386 6.936493 3.4924927 12.42746 3.4924927l11.612549 0l2.5029602 -15.192352l-9.109589 0c-2.153717 0 -3.8320618 -0.53356934 -5.035034 -1.6007385c-1.1835632 -1.0865479 -2.1245728 -2.6387634 -2.8230896 -4.6566467l-8.23645 -25.58252c6.907379 -2.5029602 12.505066 -5.9275513 16.79306 -10.273773c4.3074036 -4.346222 7.499176 -9.235687 9.575256 -14.668488c2.09552 -5.4327545 3.1432495 -10.943146 3.1432495 -16.531128c0 -6.6745453 -1.5231018 -12.786407 -4.569336 -18.335602c-3.0462341 -5.549179 -7.4312744 -9.992416 -13.15506 -13.329697c-5.7044067 -3.337265 -12.611816 -5.005905 -20.722137 -5.005905z" fill-rule="evenodd"/><path stroke="#595959" stroke-width="1.0" stroke-linejoin="round" stroke-linecap="butt" d="m506.00827 206.0l-19.674408 125.17685l17.171448 0l8.760315 -56.141846l65.979065 0l-8.760315 56.141846l17.171448 0l19.674377 -125.17685l-17.171448 0l-8.411072 53.84262l-65.979065 0l8.411072 -53.84262z" fill-rule="evenodd"/></g></svg>